<svg width="56" height="56" viewBox="0 0 56 56" fill="none" xmlns="http://www.w3.org/2000/svg">
<g clip-path="url(#clip0_58_286)">
<path d="M33.437 46.6667H32.947C31.9594 46.5687 31.0288 46.1584 30.2903 45.4955C29.5518 44.8325 29.0439 43.9514 28.8403 42.98L22.587 14L16.147 28.9334C15.9648 29.3507 15.6645 29.7057 15.2831 29.9545C14.9016 30.2032 14.4557 30.335 14.0003 30.3334H7.00033C6.38149 30.3334 5.78799 30.0875 5.35041 29.65C4.91282 29.2124 4.66699 28.6189 4.66699 28C4.66699 27.3812 4.91282 26.7877 5.35041 26.3501C5.78799 25.9125 6.38149 25.6667 7.00033 25.6667H12.4603L18.317 12.1567C18.7112 11.2501 19.3832 10.4922 20.236 9.9921C21.0888 9.49204 22.0784 9.27573 23.0621 9.37436C24.0457 9.47299 24.9727 9.88145 25.7092 10.5409C26.4458 11.2003 26.9539 12.0766 27.1603 13.0434L33.4137 42L39.8537 27.1134C40.0287 26.6873 40.326 26.3225 40.708 26.0651C41.09 25.8076 41.5397 25.669 42.0003 25.6667H49.0003C49.6192 25.6667 50.2127 25.9125 50.6502 26.3501C51.0878 26.7877 51.3337 27.3812 51.3337 28C51.3337 28.6189 51.0878 29.2124 50.6502 29.65C50.2127 30.0875 49.6192 30.3334 49.0003 30.3334H43.5403L37.6837 43.8434C37.326 44.6752 36.7341 45.3851 35.9801 45.8864C35.226 46.3877 34.3424 46.6588 33.437 46.6667Z" fill="#4D44B5"/>
</g>
<defs>
<clipPath id="clip0_58_286">
<rect width="56" height="56" fill="white"/>
</clipPath>
</defs>
</svg>
