<svg width="56" height="54" viewBox="0 0 56 54" fill="none" xmlns="http://www.w3.org/2000/svg">
<path d="M20.0549 45.9016C18.3271 45.8979 16.6391 45.404 15.2038 44.482C13.7684 43.56 12.6499 42.2513 11.9892 40.7208C11.3285 39.1903 11.1553 37.5065 11.4913 35.8818C11.8273 34.257 12.6576 32.764 13.8774 31.5909L28.7174 17.3474C29.2057 16.8792 29.7855 16.5078 30.4236 16.2545C31.0616 16.0011 31.7455 15.8707 32.4361 15.8707C33.1268 15.8707 33.8106 16.0011 34.4487 16.2545C35.0868 16.5078 35.6665 16.8792 36.1549 17.3474C36.6432 17.8155 37.0306 18.3714 37.2949 18.983C37.5592 19.5947 37.6952 20.2504 37.6952 20.9125C37.6952 21.5746 37.5592 22.2302 37.2949 22.8419C37.0306 23.4536 36.6432 24.0094 36.1549 24.4775L21.2974 38.7043C21.1405 38.8799 20.9475 39.0226 20.7303 39.1233C20.5132 39.224 20.2767 39.2806 20.0357 39.2895C19.7947 39.2984 19.5544 39.2595 19.3298 39.1751C19.1053 39.0908 18.9013 38.9629 18.7308 38.7994C18.5602 38.6359 18.4268 38.4403 18.3388 38.225C18.2508 38.0098 18.2102 37.7794 18.2195 37.5483C18.2288 37.3173 18.2878 37.0905 18.3929 36.8824C18.4979 36.6743 18.6467 36.4892 18.8299 36.3388L33.6699 22.0952C33.9566 21.7743 34.1064 21.3614 34.0894 20.9392C34.0724 20.517 33.8898 20.1164 33.5781 19.8177C33.2665 19.5189 32.8487 19.3438 32.4082 19.3275C31.9678 19.3112 31.5372 19.4548 31.2024 19.7297L16.3449 33.9565C15.3586 34.902 14.8045 36.1844 14.8045 37.5215C14.8045 38.8587 15.3586 40.1411 16.3449 41.0866C17.3312 42.0322 18.6688 42.5633 20.0636 42.5633C21.4584 42.5633 22.7961 42.0322 23.7824 41.0866L38.6224 26.8431C40.2163 25.261 41.0982 23.1421 41.0783 20.9426C41.0584 18.7432 40.1381 16.6393 38.5158 15.084C36.8935 13.5287 34.6989 12.6465 32.4047 12.6274C30.1104 12.6083 27.9002 13.4538 26.2499 14.9818L17.5874 23.3703C17.2595 23.6827 16.816 23.8581 16.3536 23.8581C15.8913 23.8581 15.4478 23.6827 15.1199 23.3703C14.9559 23.2143 14.8257 23.0288 14.7368 22.8243C14.648 22.6199 14.6022 22.4006 14.6022 22.1791C14.6022 21.9576 14.648 21.7384 14.7368 21.5339C14.8257 21.3295 14.9559 21.1439 15.1199 20.988L23.7824 12.5995C26.0798 10.397 29.1958 9.15967 32.4449 9.15967C35.694 9.15967 38.81 10.397 41.1074 12.5995C43.4048 14.802 44.6955 17.7893 44.6955 20.9041C44.6955 24.0189 43.4048 27.0061 41.1074 29.2086L26.2499 43.4522C25.4358 44.2306 24.4697 44.8477 23.4067 45.268C22.3437 45.6882 21.2047 45.9036 20.0549 45.9016Z" fill="#4D44B5"/>
</svg>
