<svg width="56" height="56" viewBox="0 0 56 56" fill="none" xmlns="http://www.w3.org/2000/svg">
<path d="M44.3934 33.1434V17.2684C44.3934 8.22876 37.0397 0.875 28 0.875C18.9603 0.875 11.6066 8.22876 11.6066 17.2684V33.1445C8.69232 33.9893 6.54199 36.6702 6.54199 39.9655C6.54199 43.8175 9.67628 46.9518 13.5292 46.9518H19.9097V47.0347C19.9097 51.496 23.5387 55.125 28 55.125C32.4613 55.125 36.0903 51.496 36.0903 47.0347V46.9518H42.4708C46.3237 46.9518 49.458 43.8175 49.458 39.827C49.458 36.6461 47.3077 33.9846 44.3934 33.1434ZM16.8566 17.2684C16.8566 11.1238 21.8553 6.125 28 6.125C34.1447 6.125 39.1434 11.1238 39.1434 17.2684V32.8407H16.8566V17.2684ZM30.8403 47.0347C30.8403 48.6009 29.5663 49.875 28 49.875C26.4337 49.875 25.1597 48.6009 25.1597 47.0347V46.9518H30.8403V47.0347H30.8403ZM42.4708 41.7018H13.5292C12.5713 41.7018 11.792 40.9225 11.792 39.827C11.792 38.87 12.5713 38.0907 13.5292 38.0907H42.4708C43.4287 38.0907 44.208 38.87 44.208 39.9655C44.208 40.9225 43.4287 41.7018 42.4708 41.7018Z" fill="#4D44B5"/>
</svg>
