<svg width="56" height="56" viewBox="0 0 56 56" fill="none" xmlns="http://www.w3.org/2000/svg">
<path d="M42 12.25H38.5V10.5C38.5 10.0359 38.3156 9.59075 37.9874 9.26256C37.6593 8.93437 37.2141 8.75 36.75 8.75C36.2859 8.75 35.8407 8.93437 35.5126 9.26256C35.1844 9.59075 35 10.0359 35 10.5V12.25H29.75V10.5C29.75 10.0359 29.5656 9.59075 29.2374 9.26256C28.9093 8.93437 28.4641 8.75 28 8.75C27.5359 8.75 27.0908 8.93437 26.7626 9.26256C26.4344 9.59075 26.25 10.0359 26.25 10.5V12.25H21V10.5C21 10.0359 20.8156 9.59075 20.4874 9.26256C20.1592 8.93437 19.7141 8.75 19.25 8.75C18.7859 8.75 18.3408 8.93437 18.0126 9.26256C17.6844 9.59075 17.5 10.0359 17.5 10.5V12.25H14C12.6076 12.25 11.2723 12.8031 10.2877 13.7877C9.30312 14.7723 8.75 16.1076 8.75 17.5V42C8.75 43.3924 9.30312 44.7277 10.2877 45.7123C11.2723 46.6969 12.6076 47.25 14 47.25H42C43.3924 47.25 44.7277 46.6969 45.7123 45.7123C46.6969 44.7277 47.25 43.3924 47.25 42V17.5C47.25 16.1076 46.6969 14.7723 45.7123 13.7877C44.7277 12.8031 43.3924 12.25 42 12.25ZM12.25 17.5C12.25 17.0359 12.4344 16.5908 12.7626 16.2626C13.0908 15.9344 13.5359 15.75 14 15.75H17.5V17.5C17.5 17.9641 17.6844 18.4092 18.0126 18.7374C18.3408 19.0656 18.7859 19.25 19.25 19.25C19.7141 19.25 20.1592 19.0656 20.4874 18.7374C20.8156 18.4092 21 17.9641 21 17.5V15.75H26.25V17.5C26.25 17.9641 26.4344 18.4092 26.7626 18.7374C27.0908 19.0656 27.5359 19.25 28 19.25C28.4641 19.25 28.9093 19.0656 29.2374 18.7374C29.5656 18.4092 29.75 17.9641 29.75 17.5V15.75H35V17.5C35 17.9641 35.1844 18.4092 35.5126 18.7374C35.8407 19.0656 36.2859 19.25 36.75 19.25C37.2141 19.25 37.6593 19.0656 37.9874 18.7374C38.3156 18.4092 38.5 17.9641 38.5 17.5V15.75H42C42.4641 15.75 42.9092 15.9344 43.2374 16.2626C43.5656 16.5908 43.75 17.0359 43.75 17.5V22.75H12.25V17.5ZM43.75 42C43.75 42.4641 43.5656 42.9092 43.2374 43.2374C42.9092 43.5656 42.4641 43.75 42 43.75H14C13.5359 43.75 13.0908 43.5656 12.7626 43.2374C12.4344 42.9092 12.25 42.4641 12.25 42V26.25H43.75V42Z" fill="#4D44B5"/>
</svg>
