<svg width="56" height="56" viewBox="0 0 56 56" fill="none" xmlns="http://www.w3.org/2000/svg">
<path d="M45.3598 30.3334C44.8464 30.3334 44.3097 30.17 43.7964 30.0534C42.7569 29.8243 41.7353 29.5201 40.7397 29.1434C39.6573 28.7496 38.4674 28.77 37.3991 29.2008C36.3308 29.6315 35.4596 30.4422 34.9531 31.4767L34.4398 32.5267C32.1671 31.2624 30.0787 29.6922 28.2331 27.86C26.4009 26.0144 24.8307 23.926 23.5664 21.6534L24.5464 21C25.5809 20.4935 26.3916 19.6223 26.8223 18.554C27.2531 17.4857 27.2735 16.2958 26.8797 15.2134C26.5093 14.2157 26.2053 13.1945 25.9697 12.1567C25.8531 11.6434 25.7598 11.1067 25.6897 10.57C25.4064 8.92647 24.5455 7.43808 23.2622 6.37291C21.9789 5.30774 20.3574 4.73577 18.6897 4.76002H11.6897C10.6842 4.75058 9.68833 4.95792 8.77007 5.36792C7.85181 5.77793 7.03267 6.38098 6.36842 7.13601C5.70417 7.89104 5.21039 8.78034 4.92072 9.74335C4.63104 10.7064 4.55227 11.7205 4.68975 12.7167C5.9328 22.4919 10.3971 31.5744 17.3776 38.5295C24.3581 45.4846 33.4567 49.9159 43.2364 51.1234H44.1231C45.8437 51.1259 47.505 50.4946 48.7897 49.35C49.5279 48.6898 50.1176 47.8804 50.5198 46.9754C50.9221 46.0704 51.1277 45.0904 51.1231 44.1V37.1C51.0945 35.4793 50.5043 33.9186 49.4532 32.6846C48.4021 31.4505 46.9553 30.6195 45.3598 30.3334ZM46.5264 44.3334C46.526 44.6647 46.455 44.9921 46.3182 45.2938C46.1815 45.5955 45.982 45.8647 45.7331 46.0834C45.4724 46.3085 45.1675 46.4766 44.838 46.5771C44.5085 46.6775 44.1617 46.708 43.8198 46.6667C35.0812 45.5462 26.9643 41.5485 20.7494 35.304C14.5345 29.0596 10.5754 20.9238 9.49641 12.18C9.45928 11.8382 9.49182 11.4925 9.59209 11.1636C9.69235 10.8347 9.85824 10.5296 10.0797 10.2667C10.2984 10.0178 10.5676 9.81831 10.8693 9.68152C11.171 9.54474 11.4984 9.47377 11.8297 9.47335H18.8297C19.3724 9.46128 19.9022 9.63874 20.3281 9.97518C20.754 10.3116 21.0492 10.786 21.1631 11.3167C21.2564 11.9545 21.3731 12.5845 21.5131 13.2067C21.7826 14.4367 22.1414 15.6454 22.5864 16.8234L19.3197 18.34C19.0404 18.4682 18.7892 18.6502 18.5804 18.8757C18.3717 19.1013 18.2095 19.3658 18.1033 19.6541C17.9971 19.9425 17.9488 20.249 17.9614 20.556C17.9739 20.8631 18.047 21.1646 18.1764 21.4434C21.5345 28.6364 27.3167 34.4186 34.5098 37.7767C35.0778 38.0101 35.715 38.0101 36.2831 37.7767C36.5741 37.6726 36.8415 37.5117 37.0698 37.3035C37.2981 37.0952 37.4828 36.8436 37.6131 36.5634L39.0597 33.2967C40.266 33.7281 41.4971 34.0865 42.7464 34.37C43.3686 34.51 43.9986 34.6267 44.6364 34.72C45.1671 34.8339 45.6415 35.1291 45.9779 35.555C46.3144 35.9809 46.4918 36.5107 46.4798 37.0534L46.5264 44.3334Z" fill="#4D44B5"/>
</svg>
