<svg width="56" height="56" viewBox="0 0 56 56" fill="none" xmlns="http://www.w3.org/2000/svg">
<path d="M46.6663 4.6665H23.333C21.4765 4.6665 19.696 5.404 18.3833 6.71676C17.0705 8.02951 16.333 9.80999 16.333 11.6665V16.3332H9.33301C7.47649 16.3332 5.69602 17.0707 4.38326 18.3834C3.07051 19.6962 2.33301 21.4767 2.33301 23.3332V37.3332C2.33225 38.7814 2.78067 40.1941 3.61647 41.3768C4.45227 42.5595 5.63431 43.4538 6.99968 43.9365V48.9998C7.00039 49.4133 7.11095 49.8191 7.32004 50.1758C7.52914 50.5325 7.82925 50.8272 8.18968 51.0298C8.53841 51.2275 8.93217 51.3319 9.33301 51.3332C9.7518 51.333 10.1628 51.2202 10.523 51.0065L21.653 44.3332H32.6663C34.5229 44.3332 36.3033 43.5957 37.6161 42.2829C38.9288 40.9702 39.6663 39.1897 39.6663 37.3332V35.8632L45.4763 39.3398C45.8365 39.5536 46.2475 39.6664 46.6663 39.6665C47.0672 39.6653 47.4609 39.5608 47.8097 39.3632C48.1701 39.1606 48.4702 38.8659 48.6793 38.5092C48.8884 38.1525 48.999 37.7466 48.9997 37.3332V32.2698C50.365 31.7871 51.5471 30.8928 52.3829 29.7101C53.2187 28.5275 53.6671 27.1147 53.6663 25.6665V11.6665C53.6663 9.80999 52.9288 8.02951 51.6161 6.71676C50.3033 5.404 48.5229 4.6665 46.6663 4.6665ZM34.9997 37.3332C34.9997 37.952 34.7538 38.5455 34.3163 38.9831C33.8787 39.4207 33.2852 39.6665 32.6663 39.6665H20.9997C20.5809 39.6666 20.1698 39.7795 19.8097 39.9932L11.6663 44.8698V41.9998C11.6663 41.381 11.4205 40.7875 10.9829 40.3499C10.5453 39.9123 9.95185 39.6665 9.33301 39.6665C8.71417 39.6665 8.12068 39.4207 7.68309 38.9831C7.24551 38.5455 6.99968 37.952 6.99968 37.3332V23.3332C6.99968 22.7143 7.24551 22.1208 7.68309 21.6833C8.12068 21.2457 8.71417 20.9998 9.33301 20.9998H16.333V25.6665C16.333 27.523 17.0705 29.3035 18.3833 30.6163C19.696 31.929 21.4765 32.6665 23.333 32.6665H34.3463L34.9997 33.0632V37.3332ZM48.9997 25.6665C48.9997 26.2853 48.7538 26.8788 48.3163 27.3164C47.8787 27.754 47.2852 27.9998 46.6663 27.9998C46.0475 27.9998 45.454 28.2457 45.0164 28.6833C44.5788 29.1208 44.333 29.7143 44.333 30.3332V33.2032L36.1897 28.3265C35.8295 28.1128 35.4185 28 34.9997 27.9998H23.333C22.7142 27.9998 22.1207 27.754 21.6831 27.3164C21.2455 26.8788 20.9997 26.2853 20.9997 25.6665V11.6665C20.9997 11.0477 21.2455 10.4542 21.6831 10.0166C22.1207 9.579 22.7142 9.33317 23.333 9.33317H46.6663C47.2852 9.33317 47.8787 9.579 48.3163 10.0166C48.7538 10.4542 48.9997 11.0477 48.9997 11.6665V25.6665Z" fill="#4D44B5"/>
</svg>
