<?xml version="1.0" standalone="no"?>
<!DOCTYPE svg PUBLIC "-//W3C//DTD SVG 20010904//EN"
 "http://www.w3.org/TR/2001/REC-SVG-20010904/DTD/svg10.dtd">
<svg version="1.0" xmlns="http://www.w3.org/2000/svg"
 width="421.000000pt" height="386.000000pt" viewBox="0 0 421.000000 386.000000"
 preserveAspectRatio="xMidYMid meet">

<g transform="translate(0.000000,386.000000) scale(0.100000,-0.100000)"
fill="#000000" stroke="none">
<path d="M172 3793 c-7 -3 -19 -18 -27 -33 -13 -25 -15 -156 -15 -944 0 -582
4 -924 10 -941 11 -29 69 -58 97 -48 10 3 28 15 41 26 l22 20 0 879 0 878
1810 0 1810 0 0 -184 c0 -101 3 -192 6 -201 8 -19 55 -45 84 -45 12 0 35 13
51 29 l29 29 0 237 c0 246 -6 284 -45 299 -20 7 -3854 7 -3873 -1z"/>
<path d="M727 3028 c-42 -46 -86 -96 -98 -112 -57 -73 8 -170 93 -138 l28 10
0 -224 c0 -254 6 -284 60 -302 25 -9 39 -8 65 2 54 23 57 46 53 443 l-3 351
-24 26 c-18 19 -35 26 -62 26 -34 0 -44 -7 -112 -82z"/>
<path d="M1849 3082 c-144 -75 -191 -279 -72 -308 49 -13 93 28 108 98 13 65
89 89 141 45 23 -20 27 -33 31 -93 5 -65 3 -72 -28 -119 -19 -27 -98 -113
-176 -191 -158 -157 -167 -175 -119 -231 l24 -28 184 -3 c215 -4 251 3 275 53
14 29 14 38 3 66 -17 41 -61 59 -142 59 l-62 0 45 48 c74 76 117 135 145 196
24 54 26 66 22 155 -5 107 -23 154 -80 210 -77 77 -200 95 -299 43z"/>
<path d="M3121 3084 c-31 -40 -28 -87 10 -118 28 -24 38 -26 130 -26 54 0 99
-2 99 -5 0 -3 -20 -36 -45 -73 -65 -97 -61 -129 27 -182 91 -56 98 -65 98
-137 0 -55 -4 -68 -25 -88 -51 -52 -145 -16 -145 55 0 37 -47 90 -80 90 -55 0
-89 -38 -90 -100 0 -89 71 -190 159 -227 52 -22 148 -20 202 5 53 23 112 83
133 133 23 56 31 158 16 220 -10 42 -24 64 -71 112 l-57 60 65 98 c74 110 81
143 43 184 l-23 25 -213 0 -213 0 -20 -26z"/>
<path d="M3965 3018 c-31 -18 -44 -40 -45 -76 0 -84 117 -115 155 -41 22 42
18 67 -14 100 -31 30 -63 36 -96 17z"/>
<path d="M1305 2917 c-22 -18 -27 -34 -32 -85 l-6 -62 -54 0 c-47 0 -59 -4
-84 -29 -36 -36 -37 -70 -3 -110 23 -28 31 -31 84 -31 l57 0 6 -61 c7 -76 33
-109 87 -109 55 0 83 35 88 110 l4 60 57 0 c59 1 80 11 99 47 19 35 14 63 -17
94 -25 25 -37 29 -84 29 l-55 0 -4 60 c-3 45 -10 66 -28 85 -30 32 -79 33
-115 2z"/>
<path d="M2425 2908 c-32 -38 -29 -81 11 -115 24 -22 32 -23 220 -23 197 0
224 4 251 39 21 27 15 79 -12 106 -24 25 -24 25 -234 25 l-209 0 -27 -32z"/>
<path d="M3944 2659 c-18 -20 -19 -49 -24 -643 l-5 -621 -1398 -5 -1399 -5
-19 -24 c-30 -36 -25 -84 12 -115 l31 -26 1445 0 1445 0 29 29 29 29 0 667 c0
705 0 712 -45 729 -35 13 -82 6 -101 -15z"/>
<path d="M2450 2587 c-53 -27 -62 -96 -18 -137 20 -19 35 -20 230 -20 208 0
209 0 233 25 35 34 33 78 -4 116 l-29 29 -194 0 c-135 0 -200 -4 -218 -13z"/>
<path d="M443 1794 c-64 -31 -117 -89 -152 -163 -22 -48 -26 -69 -26 -151 1
-78 5 -105 24 -148 13 -29 22 -54 20 -56 -2 -1 -24 -14 -49 -28 -62 -36 -146
-127 -176 -192 -36 -78 -46 -191 -42 -474 3 -249 3 -251 27 -276 17 -18 35
-26 57 -26 91 0 94 10 94 362 0 286 1 294 24 343 25 56 81 110 135 133 48 20
240 28 313 13 66 -14 125 -54 167 -112 l30 -40 -34 -44 c-78 -103 -98 -252
-50 -370 14 -33 25 -61 25 -62 0 0 -24 -14 -52 -31 -68 -38 -143 -118 -174
-187 -30 -65 -50 -162 -40 -198 16 -64 95 -89 140 -44 15 15 25 41 30 77 9 69
26 108 66 154 64 72 94 81 275 81 138 0 165 -3 199 -19 76 -38 132 -114 142
-194 9 -68 14 -81 36 -102 13 -12 35 -20 55 -20 49 0 78 34 87 100 9 69 26
108 66 154 60 68 96 80 257 84 114 3 152 0 193 -13 93 -31 170 -136 170 -231
0 -48 42 -94 86 -94 50 0 80 34 89 100 14 99 53 160 134 208 43 25 54 27 189
30 108 3 153 0 187 -11 98 -34 159 -109 173 -215 11 -75 39 -112 87 -112 54 0
83 32 91 99 12 107 89 205 182 231 59 16 282 13 333 -5 95 -34 154 -109 169
-216 15 -102 78 -140 145 -87 27 21 27 24 23 99 -8 141 -100 281 -224 342
l-42 20 26 55 c105 230 -66 512 -295 489 -150 -15 -262 -149 -271 -322 -4 -76
6 -123 42 -206 5 -13 -6 -24 -46 -47 -29 -16 -70 -48 -90 -69 l-38 -39 -54 51
c-29 28 -71 59 -94 69 l-40 18 26 57 c23 47 27 70 27 146 0 80 -3 97 -32 157
-79 168 -246 232 -393 152 -103 -56 -161 -156 -168 -289 -4 -76 6 -124 42
-206 5 -13 -6 -24 -46 -47 -29 -16 -70 -48 -90 -69 l-38 -39 -54 51 c-29 28
-71 59 -94 69 l-40 18 26 57 c23 47 27 70 27 146 0 80 -3 97 -31 155 -60 124
-147 184 -269 185 -59 0 -78 -5 -123 -30 -105 -58 -163 -157 -170 -290 -4 -76
6 -124 42 -206 5 -13 -6 -24 -46 -47 -29 -16 -70 -48 -91 -70 l-39 -40 -33 37
c-19 20 -60 52 -93 71 l-59 35 26 55 c22 46 26 69 26 145 0 78 -4 99 -29 152
-52 115 -163 193 -273 193 -28 0 -35 5 -54 42 -28 55 -114 138 -168 162 -30
14 -41 24 -37 35 3 9 14 41 25 71 48 131 11 291 -90 387 -81 76 -209 96 -306
47z m192 -177 c55 -55 70 -148 36 -223 -67 -148 -235 -87 -235 86 0 140 116
220 199 137z m492 -757 c40 -24 59 -53 72 -110 28 -126 -69 -250 -161 -206
-79 38 -113 168 -66 255 23 42 74 81 108 81 8 0 29 -9 47 -20z m861 0 c66 -40
94 -128 68 -214 -18 -58 -47 -91 -92 -106 -44 -15 -90 7 -124 57 -21 30 -25
48 -25 107 0 83 25 133 78 160 42 20 55 20 95 -4z m889 -24 c97 -104 42 -300
-83 -300 -25 0 -43 9 -68 33 -84 82 -69 243 30 296 40 22 83 12 121 -29z m860
0 c78 -84 63 -229 -29 -286 -59 -37 -121 -7 -159 75 -40 87 -9 200 67 240 40
22 83 12 121 -29z"/>
</g>
</svg>
