<svg width="56" height="56" viewBox="0 0 56 56" fill="none" xmlns="http://www.w3.org/2000/svg">
<path d="M28.0003 4.6665C23.3854 4.6665 18.8742 6.03498 15.037 8.59888C11.1999 11.1628 8.20919 14.8069 6.44315 19.0706C4.6771 23.3342 4.21502 28.0257 5.11535 32.5519C6.01567 37.0782 8.23795 41.2358 11.5012 44.499C14.7644 47.7622 18.922 49.9845 23.4482 50.8848C27.9745 51.7851 32.666 51.3231 36.9296 49.557C41.1932 47.791 44.8374 44.8003 47.4013 40.9631C49.9652 37.126 51.3337 32.6147 51.3337 27.9998C51.3337 24.9357 50.7301 21.9015 49.5575 19.0706C48.3849 16.2396 46.6662 13.6674 44.4995 11.5007C42.3328 9.33398 39.7605 7.61526 36.9296 6.44265C34.0987 5.27004 31.0645 4.6665 28.0003 4.6665ZM28.0003 46.6665C24.3084 46.6665 20.6994 45.5717 17.6297 43.5206C14.56 41.4695 12.1674 38.5541 10.7546 35.1433C9.34175 31.7324 8.97209 27.9791 9.69234 24.3582C10.4126 20.7372 12.1904 17.4111 14.801 14.8005C17.4116 12.1899 20.7377 10.4121 24.3587 9.69185C27.9796 8.97159 31.7329 9.34125 35.1438 10.7541C38.5546 12.1669 41.47 14.5595 43.5211 17.6292C45.5722 20.6989 46.667 24.3079 46.667 27.9998C46.667 32.9505 44.7003 37.6985 41.1997 41.1992C37.699 44.6998 32.951 46.6665 28.0003 46.6665Z" fill="#4D44B5"/>
<path d="M35.0003 25.6667H30.3337V16.3333C30.3337 15.7145 30.0878 15.121 29.6502 14.6834C29.2127 14.2458 28.6192 14 28.0003 14C27.3815 14 26.788 14.2458 26.3504 14.6834C25.9128 15.121 25.667 15.7145 25.667 16.3333V28C25.667 28.6188 25.9128 29.2123 26.3504 29.6499C26.788 30.0875 27.3815 30.3333 28.0003 30.3333H35.0003C35.6192 30.3333 36.2127 30.0875 36.6502 29.6499C37.0878 29.2123 37.3337 28.6188 37.3337 28C37.3337 27.3812 37.0878 26.7877 36.6502 26.3501C36.2127 25.9125 35.6192 25.6667 35.0003 25.6667Z" fill="#4D44B5"/>
</svg>
