<svg width="56" height="56" viewBox="0 0 56 56" fill="none" xmlns="http://www.w3.org/2000/svg">
<path d="M28.003 21.8398C27.1937 21.8398 26.3923 21.9992 25.6446 22.309C24.8969 22.6187 24.2175 23.0726 23.6453 23.6449C23.073 24.2172 22.6191 24.8965 22.3093 25.6442C21.9996 26.3919 21.8402 27.1933 21.8402 28.0026C21.8402 28.812 21.9996 29.6133 22.3093 30.361C22.6191 31.1088 23.073 31.7881 23.6453 32.3604C24.2175 32.9327 24.8969 33.3866 25.6446 33.6963C26.3923 34.006 27.1937 34.1654 28.003 34.1654C29.6375 34.1651 31.2049 33.5154 32.3604 32.3594C33.5159 31.2034 34.1648 29.6357 34.1644 28.0012C34.1641 26.3668 33.5144 24.7994 32.3584 23.6439C31.2024 22.4884 29.6347 21.8395 28.0002 21.8398H28.003ZM8.40303 21.8398C7.59372 21.8398 6.79234 21.9992 6.04463 22.309C5.29693 22.6187 4.61755 23.0726 4.04528 23.6449C3.47301 24.2172 3.01906 24.8965 2.70935 25.6442C2.39964 26.3919 2.24023 27.1933 2.24023 28.0026C2.24023 28.812 2.39964 29.6133 2.70935 30.361C3.01906 31.1088 3.47301 31.7881 4.04528 32.3604C4.61755 32.9327 5.29693 33.3866 6.04463 33.6963C6.79234 34.006 7.59372 34.1654 8.40303 34.1654C10.0375 34.1651 11.6049 33.5154 12.7604 32.3594C13.9159 31.2034 14.5648 29.6357 14.5644 28.0012C14.5641 26.3668 13.9144 24.7994 12.7584 23.6439C11.6024 22.4884 10.0347 21.8395 8.40023 21.8398H8.40303ZM47.603 21.8398C46.7937 21.8398 45.9923 21.9992 45.2446 22.309C44.4969 22.6187 43.8175 23.0726 43.2453 23.6449C42.673 24.2172 42.2191 24.8965 41.9093 25.6442C41.5996 26.3919 41.4402 27.1933 41.4402 28.0026C41.4402 28.812 41.5996 29.6133 41.9093 30.361C42.2191 31.1088 42.673 31.7881 43.2453 32.3604C43.8175 32.9327 44.4969 33.3866 45.2446 33.6963C45.9923 34.006 46.7937 34.1654 47.603 34.1654C49.2375 34.1651 50.8049 33.5154 51.9604 32.3594C53.1159 31.2034 53.7648 29.6357 53.7644 28.0012C53.7641 26.3668 53.1144 24.7994 51.9584 23.6439C50.8024 22.4884 49.2347 21.8395 47.6002 21.8398H47.603Z" fill="#4D44B5"/>
</svg>
