<svg width="24" height="6" viewBox="0 0 24 6" fill="none" xmlns="http://www.w3.org/2000/svg">
<path d="M12.0012 0.360001C11.6543 0.360001 11.3109 0.428317 10.9904 0.56105C10.67 0.693783 10.3788 0.888332 10.1335 1.13359C9.88829 1.37885 9.69374 1.67001 9.56101 1.99046C9.42828 2.3109 9.35996 2.65435 9.35996 3.0012C9.35996 3.34805 9.42828 3.6915 9.56101 4.01194C9.69374 4.33239 9.88829 4.62355 10.1335 4.86881C10.3788 5.11407 10.67 5.30862 10.9904 5.44135C11.3109 5.57408 11.6543 5.6424 12.0012 5.6424C12.7016 5.64224 13.3734 5.36382 13.8686 4.86839C14.3638 4.37295 14.6419 3.70109 14.6418 3.0006C14.6416 2.30011 14.3632 1.62837 13.8677 1.13317C13.3723 0.637957 12.7004 0.359842 12 0.360001H12.0012ZM3.60116 0.360001C3.25431 0.360001 2.91086 0.428317 2.59042 0.56105C2.26997 0.693783 1.97881 0.888332 1.73355 1.13359C1.48829 1.37885 1.29374 1.67001 1.16101 1.99046C1.02828 2.3109 0.959961 2.65435 0.959961 3.0012C0.959961 3.34805 1.02828 3.6915 1.16101 4.01194C1.29374 4.33239 1.48829 4.62355 1.73355 4.86881C1.97881 5.11407 2.26997 5.30862 2.59042 5.44135C2.91086 5.57408 3.25431 5.6424 3.60116 5.6424C4.30165 5.64224 4.97339 5.36382 5.4686 4.86839C5.9638 4.37295 6.24192 3.70109 6.24176 3.0006C6.2416 2.30011 5.96318 1.62837 5.46775 1.13317C4.97231 0.637957 4.30045 0.359842 3.59996 0.360001H3.60116ZM20.4012 0.360001C20.0543 0.360001 19.7109 0.428317 19.3904 0.56105C19.07 0.693783 18.7788 0.888332 18.5335 1.13359C18.2883 1.37885 18.0937 1.67001 17.961 1.99046C17.8283 2.3109 17.76 2.65435 17.76 3.0012C17.76 3.34805 17.8283 3.6915 17.961 4.01194C18.0937 4.33239 18.2883 4.62355 18.5335 4.86881C18.7788 5.11407 19.07 5.30862 19.3904 5.44135C19.7109 5.57408 20.0543 5.6424 20.4012 5.6424C21.1016 5.64224 21.7734 5.36382 22.2686 4.86839C22.7638 4.37295 23.0419 3.70109 23.0418 3.0006C23.0416 2.30011 22.7632 1.62837 22.2677 1.13317C21.7723 0.637957 21.1005 0.359842 20.4 0.360001H20.4012Z" fill="#A098AE"/>
</svg>
