<svg width="56" height="56" viewBox="0 0 56 56" fill="none" xmlns="http://www.w3.org/2000/svg">
<path d="M46.6663 9.3335H9.33301C7.47649 9.3335 5.69601 10.071 4.38326 11.3837C3.07051 12.6965 2.33301 14.477 2.33301 16.3335V39.6668C2.33301 41.5233 3.07051 43.3038 4.38326 44.6166C5.69601 45.9293 7.47649 46.6668 9.33301 46.6668H46.6663C48.5229 46.6668 50.3033 45.9293 51.6161 44.6166C52.9288 43.3038 53.6663 41.5233 53.6663 39.6668V16.3335C53.6663 14.477 52.9288 12.6965 51.6161 11.3837C50.3033 10.071 48.5229 9.3335 46.6663 9.3335ZM48.9997 39.0835L37.5663 28.8168L48.9997 20.8135V39.0835ZM6.99967 20.8135L18.433 28.8168L6.99967 39.0835V20.8135ZM22.353 31.5702L26.6697 34.5802C27.0603 34.8511 27.5243 34.9963 27.9997 34.9963C28.475 34.9963 28.9391 34.8511 29.3297 34.5802L33.6463 31.5702L45.313 42.0002H10.733L22.353 31.5702ZM9.33301 14.0002H46.6663C47.0997 14.0036 47.5235 14.1277 47.8903 14.3585C48.2571 14.5893 48.5523 14.9177 48.743 15.3068L27.9997 29.8202L7.25634 15.3068C7.447 14.9177 7.74227 14.5893 8.10906 14.3585C8.47585 14.1277 8.89966 14.0036 9.33301 14.0002Z" fill="#4D44B5"/>
</svg>
