<svg width="56" height="56" viewBox="0 0 56 56" fill="none" xmlns="http://www.w3.org/2000/svg">
<path d="M44.3519 33.2082C45.6399 32.0882 46.4799 30.4082 46.4799 28.5602C46.4799 25.1442 43.7359 22.4002 40.3199 22.4002C36.9039 22.4002 34.1599 25.1442 34.1599 28.5602C34.1599 30.4082 34.9999 32.0882 36.2879 33.2082C35.1119 33.6562 33.9919 34.2722 32.9839 35.0562C31.8639 33.4882 30.0719 32.4802 27.9999 32.4802C25.9279 32.4802 24.1359 33.4882 23.0159 35.0562C22.0079 34.2722 20.9439 33.6562 19.7119 33.2082C20.9999 32.0882 21.8399 30.4082 21.8399 28.5602C21.8399 25.1442 19.0959 22.4002 15.6799 22.4002C12.2639 22.4002 9.51992 25.1442 9.51992 28.5602C9.51992 30.4082 10.3599 32.0882 11.6479 33.2082C7.16792 34.8322 3.91992 39.2001 3.91992 44.2402V51.5201C3.91992 52.1362 4.42392 52.6401 5.03992 52.6401H50.9599C51.5759 52.6401 52.0799 52.1362 52.0799 51.5201V44.2402C52.0799 39.2001 48.8319 34.8322 44.3519 33.2082ZM40.3199 24.6402C42.5039 24.6402 44.2399 26.3762 44.2399 28.5602C44.2399 30.7442 42.5039 32.4802 40.3199 32.4802C38.1359 32.4802 36.3999 30.7442 36.3999 28.5602C36.3999 26.3762 38.1359 24.6402 40.3199 24.6402ZM27.9999 34.7202C30.1839 34.7202 31.9199 36.4562 31.9199 38.6402C31.9199 40.8242 30.1839 42.5602 27.9999 42.5602C25.8159 42.5602 24.0799 40.8242 24.0799 38.6402C24.0799 36.4562 25.8159 34.7202 27.9999 34.7202ZM15.6799 24.6402C17.8639 24.6402 19.5999 26.3762 19.5999 28.5602C19.5999 30.7442 17.8639 32.4802 15.6799 32.4802C13.4959 32.4802 11.7599 30.7442 11.7599 28.5602C11.7599 26.3762 13.4959 24.6402 15.6799 24.6402ZM6.15992 50.4002V44.2402C6.15992 38.9762 10.4159 34.7202 15.6799 34.7202C18.1439 34.7202 20.3279 35.6722 22.0079 37.1842C21.8959 37.6322 21.8399 38.1362 21.8399 38.6402C21.8399 40.6002 22.7919 42.3361 24.1919 43.4562C21.6159 44.7441 19.8239 47.3761 19.5999 50.4002H6.15992ZM21.8399 50.4002C22.1199 47.2641 24.7519 44.8001 27.9999 44.8001C31.2479 44.8001 33.8799 47.2641 34.1599 50.4002H21.8399ZM49.8399 50.4002H36.3999C36.1759 47.3761 34.3839 44.8001 31.8079 43.4562C33.2639 42.3361 34.1599 40.6002 34.1599 38.6402C34.1599 38.1362 34.1039 37.6322 33.9919 37.1842C35.6719 35.6722 37.9119 34.7202 40.3199 34.7202C45.5839 34.7202 49.8399 38.9762 49.8399 44.2402V50.4002ZM19.8239 18.4802L27.3279 24.4162C27.5519 24.5842 27.7759 24.6402 27.9999 24.6402C28.2239 24.6402 28.5039 24.5842 28.6719 24.4162L36.1759 18.4802C39.5919 15.6802 40.9919 11.9282 39.8719 8.45615C38.9199 5.54415 36.5119 3.52815 33.7679 3.36015C33.5999 3.36015 33.4879 3.36015 33.3199 3.36015C31.3039 3.36015 29.3999 4.14415 27.9999 5.54415C26.4879 4.03215 24.3599 3.24815 22.2319 3.36015C19.4879 3.52815 17.0799 5.54415 16.1279 8.45615C15.0079 11.9282 16.3519 15.6802 19.8239 18.4802ZM18.2559 9.12815C18.8719 7.16815 20.6079 5.71215 22.3439 5.60015C22.4559 5.60015 22.5679 5.60015 22.6799 5.60015C24.4159 5.60015 26.0959 6.44015 27.1039 7.89615C27.3279 8.17615 27.6639 8.34415 27.9999 8.34415C28.3359 8.34415 28.6719 8.17615 28.8959 7.89615C29.9039 6.44015 31.5839 5.60015 33.3199 5.60015C33.4319 5.60015 33.5439 5.60015 33.6559 5.60015C35.4479 5.71215 37.1279 7.16815 37.7439 9.12815C38.5839 11.7042 37.5199 14.5042 34.7759 16.6882L27.9999 22.1202L21.2239 16.7442C18.4799 14.5042 17.4159 11.7601 18.2559 9.12815Z" fill="#4D44B5"/>
</svg>
