<svg width="56" height="56" viewBox="0 0 56 56" fill="none" xmlns="http://www.w3.org/2000/svg">
<path d="M50.7308 30.5809C47.5935 29.444 44.1131 29.6968 41.1703 31.2724L36.3732 33.4303C35.9857 31.221 34.2888 29.5607 32.1944 29.4969C32.1821 29.4966 25.0018 29.4156 25.0018 29.4156C19.2546 27.8391 15.5203 29.8648 13.39 31.8611C12.9543 32.2694 12.5712 32.6898 12.234 33.1044C11.6592 32.4853 10.6445 32.3199 9.9045 32.7267L3.3866 36.3095C2.54121 36.7743 2.17338 37.7939 2.52793 38.6901L8.89781 54.7928C9.31638 55.8508 10.6027 56.3184 11.6064 55.7667L18.1243 52.1839C18.7353 51.848 19.095 51.2222 19.1147 50.5627H28.8427C30.4295 50.5627 31.996 50.146 33.373 49.3574C33.373 49.3574 51.6688 38.8624 51.772 38.7686C54.3342 36.4378 54.4131 31.9152 50.7308 30.5809C52.1997 31.1131 47.5935 29.444 50.7308 30.5809ZM11.6647 51.3632L6.71513 38.8511L9.84586 37.1303L14.7954 49.6423L11.6647 51.3632ZM49.3238 35.8082L31.4643 46.0357C30.6672 46.4922 29.7606 46.7334 28.8423 46.7334H17.7683L14.0501 37.3338C14.3686 36.6848 14.9959 35.6079 16.0148 34.6531C18.1016 32.6977 20.852 32.1972 24.1904 33.1658C24.3573 33.2142 24.5301 33.2397 24.7038 33.2417L32.0848 33.3248C32.2733 33.3411 32.6211 33.76 32.6211 34.3951C32.6211 35.0489 32.2619 35.4658 32.074 35.4658H24.8219V39.2951H32.074C32.9724 39.2951 33.8085 38.9913 34.5044 38.4708L42.8087 34.7353C42.8527 34.7155 42.8958 34.6942 42.9382 34.6711C44.9302 33.5879 47.2937 33.409 49.4222 34.1803C50.2645 34.4857 49.656 35.471 49.3238 35.8082ZM37.7996 27.5911C30.1932 27.5911 24.005 21.4024 24.005 13.7955C24.005 6.18872 30.1931 0 37.7996 0C45.406 0 51.5941 6.18872 51.5941 13.7955C51.5941 21.4024 45.4059 27.5911 37.7996 27.5911ZM37.7996 3.8293C32.3081 3.8293 27.8405 8.30009 27.8405 13.7955C27.8405 19.2909 32.3082 23.7617 37.7996 23.7617C43.2911 23.7617 47.7587 19.2908 47.7587 13.7955C47.7587 8.30021 43.291 3.8293 37.7996 3.8293Z" fill="#4D44B5"/>
<path d="M38.69 12.235C37.1649 11.6087 37.0469 11.3396 37.0469 11.0276C37.0469 10.8284 37.1459 10.3652 38.0619 10.3652C38.8998 10.3652 39.944 10.8356 40.6803 11.3203L41.7047 8.6352C40.9734 8.16961 40.0846 7.76959 39.2535 7.64168V5.89551H36.5222V7.81159C34.8997 8.32301 33.8998 9.62011 33.8998 11.2348C33.8998 13.3733 35.6107 14.3281 37.2818 14.9789C38.617 15.516 38.7288 15.9272 38.7288 16.2705C38.7288 16.7985 38.2422 17.1397 37.4891 17.1397C36.507 17.1397 35.3651 16.5732 34.5657 15.9534L33.5801 18.6816C34.3952 19.3136 35.3388 19.7307 36.4005 19.8864V21.6958H39.1488V19.7262C40.8221 19.1934 41.8931 17.8071 41.8931 16.1496C41.8931 13.8294 40.1814 12.8389 38.69 12.235Z" fill="#4D44B5"/>
</svg>
