<svg width="56" height="56" viewBox="0 0 56 56" fill="none" xmlns="http://www.w3.org/2000/svg">
<path d="M19.9561 4.91267C16.7562 6.499 14.0648 8.95025 12.1871 11.9884C10.3095 15.0266 9.3208 18.5301 9.33312 22.1016V30.4032C9.3346 31.6218 9.81937 32.7901 10.6811 33.6519C11.5428 34.5136 12.7111 34.9984 13.9298 34.9998H18.6665V48.9998C18.6665 49.6187 18.9123 50.2122 19.3499 50.6498C19.7875 51.0873 20.3809 51.3332 20.9998 51.3332C21.6186 51.3332 22.2121 51.0873 22.6497 50.6498C23.0873 50.2122 23.3331 49.6187 23.3331 48.9998V6.99984C23.3328 6.60221 23.2309 6.21125 23.0371 5.86404C22.8433 5.51682 22.5641 5.22485 22.2259 5.0158C21.8876 4.80675 21.5016 4.68755 21.1044 4.6695C20.7071 4.65146 20.3119 4.73516 19.9561 4.91267ZM18.6665 30.3565L13.9998 30.4032V22.1016C13.9928 20.0934 14.4041 18.1057 15.2076 16.2651C16.011 14.4245 17.189 12.7715 18.6665 11.4112V30.3565ZM41.9998 6.99984V16.3332C41.999 16.9518 41.7529 17.5448 41.3155 17.9822C40.8781 18.4196 40.285 18.6657 39.6665 18.6665V6.99984C39.6665 6.381 39.4206 5.78751 38.983 5.34992C38.5455 4.91234 37.952 4.6665 37.3331 4.6665C36.7143 4.6665 36.1208 4.91234 35.6832 5.34992C35.2456 5.78751 34.9998 6.381 34.9998 6.99984V18.6665C34.3812 18.6657 33.7882 18.4196 33.3508 17.9822C32.9133 17.5448 32.6673 16.9518 32.6665 16.3332V6.99984C32.6665 6.381 32.4206 5.78751 31.983 5.34992C31.5455 4.91234 30.952 4.6665 30.3331 4.6665C29.7143 4.6665 29.1208 4.91234 28.6832 5.34992C28.2456 5.78751 27.9998 6.381 27.9998 6.99984V16.3332C28.0018 18.1891 28.74 19.9684 30.0523 21.2807C31.3646 22.593 33.1439 23.3311 34.9998 23.3332V48.9998C34.9998 49.6187 35.2456 50.2122 35.6832 50.6498C36.1208 51.0873 36.7143 51.3332 37.3331 51.3332C37.952 51.3332 38.5455 51.0873 38.983 50.6498C39.4206 50.2122 39.6665 49.6187 39.6665 48.9998V23.3332C41.5223 23.3311 43.3016 22.593 44.6139 21.2807C45.9263 19.9684 46.6644 18.1891 46.6665 16.3332V6.99984C46.6665 6.381 46.4206 5.78751 45.983 5.34992C45.5455 4.91234 44.952 4.6665 44.3331 4.6665C43.7143 4.6665 43.1208 4.91234 42.6832 5.34992C42.2456 5.78751 41.9998 6.381 41.9998 6.99984Z" fill="#4D44B5"/>
</svg>
