<svg width="56" height="56" viewBox="0 0 56 56" fill="none" xmlns="http://www.w3.org/2000/svg">
<path d="M21.46 4.6665L19.9788 11.3156C19.1364 11.721 18.3312 12.1878 17.5589 12.7147L11.0602 10.6685L4.52051 21.9979L9.44694 26.5096C9.25446 27.9382 9.34165 28.6425 9.44694 29.4901L4.52051 34.0018L11.0602 45.3312L17.5589 43.285C18.3312 43.8118 19.1364 44.2787 19.9788 44.6841L21.46 51.3332H34.5394L36.0205 44.6841C36.8629 44.2787 37.6682 43.8118 38.4404 43.285L44.9391 45.3312L51.4788 34.0018L46.5524 29.4901C46.5927 28.9941 46.6658 28.4978 46.6663 27.9998C46.6682 27.4868 46.5874 26.9687 46.5524 26.5096L51.4788 21.9979L44.9391 10.6685L38.4404 12.7147C37.6682 12.1878 36.8629 11.721 36.0205 11.3156L34.5394 4.6665H21.46ZM25.2061 9.33317H30.7933L31.9463 14.5103L33.1038 14.966C34.4133 15.4788 35.6373 16.1846 36.736 17.0623L37.7113 17.8371L42.7699 16.2466L45.5635 21.0864L41.6533 24.673L41.8402 25.9035C42.0601 27.2643 42.0173 28.8303 41.8402 30.0962L41.6533 31.3267L45.5635 34.9132L42.7699 39.7531L37.7113 38.1626L36.736 38.9373C35.6373 39.815 34.4133 40.5209 33.1038 41.0337L31.9463 41.4894L30.7933 46.6665H25.2061L24.0531 41.4894L22.8955 41.0337C21.5861 40.5209 20.3621 39.815 19.2633 38.9373L18.2881 38.1626L13.2295 39.7531L10.4359 34.9132L14.346 31.3267L14.1592 30.0962C13.9313 28.708 13.9663 27.1191 14.1592 25.9035L14.346 24.673L10.4359 21.0864L13.2295 16.2466L18.2881 17.8371L19.2633 17.0623C20.3621 16.1846 21.5861 15.4788 22.8955 14.966L24.0531 14.5103L25.2061 9.33317ZM27.9997 18.6665C22.8727 18.6665 18.6663 22.8728 18.6663 27.9998C18.6663 33.1269 22.8727 37.3332 27.9997 37.3332C33.1267 37.3332 37.333 33.1269 37.333 27.9998C37.333 22.8728 33.1267 18.6665 27.9997 18.6665ZM27.9997 23.3332C30.6046 23.3332 32.6663 25.3949 32.6663 27.9998C32.6663 30.6048 30.6046 32.6665 27.9997 32.6665C25.3947 32.6665 23.333 30.6048 23.333 27.9998C23.333 25.3949 25.3947 23.3332 27.9997 23.3332Z" fill="#4D44B5"/>
</svg>
