<svg width="56" height="56" viewBox="0 0 56 56" fill="none" xmlns="http://www.w3.org/2000/svg">
<path d="M46.6669 18.6667L32.6669 6.39335C31.3835 5.24545 29.7221 4.61084 28.0002 4.61084C26.2784 4.61084 24.6169 5.24545 23.3336 6.39335L9.33355 18.6667C8.59241 19.3295 8.00099 20.1426 7.59866 21.0519C7.19632 21.9612 6.99232 22.9457 7.00022 23.94V44.3333C7.00022 46.1899 7.73772 47.9703 9.05047 49.2831C10.3632 50.5958 12.1437 51.3333 14.0002 51.3333H42.0002C43.8567 51.3333 45.6372 50.5958 46.95 49.2831C48.2627 47.9703 49.0002 46.1899 49.0002 44.3333V23.9167C49.0048 22.9263 48.7992 21.9463 48.397 21.0413C47.9948 20.1363 47.4051 19.3269 46.6669 18.6667ZM32.6669 46.6667H23.3336V35C23.3336 34.3812 23.5794 33.7877 24.017 33.3501C24.4546 32.9125 25.048 32.6667 25.6669 32.6667H30.3336C30.9524 32.6667 31.5459 32.9125 31.9835 33.3501C32.4211 33.7877 32.6669 34.3812 32.6669 35V46.6667ZM44.3336 44.3333C44.3336 44.9522 44.0877 45.5457 43.6501 45.9833C43.2126 46.4208 42.6191 46.6667 42.0002 46.6667H37.3336V35C37.3336 33.1435 36.5961 31.363 35.2833 30.0503C33.9705 28.7375 32.1901 28 30.3336 28H25.6669C23.8104 28 22.0299 28.7375 20.7171 30.0503C19.4044 31.363 18.6669 33.1435 18.6669 35V46.6667H14.0002C13.3814 46.6667 12.7879 46.4208 12.3503 45.9833C11.9127 45.5457 11.6669 44.9522 11.6669 44.3333V23.9167C11.6673 23.5854 11.7383 23.258 11.8751 22.9562C12.0119 22.6545 12.2113 22.3853 12.4602 22.1667L26.4602 9.91668C26.886 9.5426 27.4334 9.3363 28.0002 9.3363C28.567 9.3363 29.1144 9.5426 29.5402 9.91668L43.5402 22.1667C43.7891 22.3853 43.9886 22.6545 44.1254 22.9562C44.2622 23.258 44.3331 23.5854 44.3336 23.9167V44.3333Z" fill="#4D44B5"/>
</svg>
