<svg width="56" height="56" viewBox="0 0 56 56" fill="none" xmlns="http://www.w3.org/2000/svg">
<path d="M27.9997 4.6665C23.049 4.6665 18.301 6.63317 14.8003 10.1338C11.2997 13.6345 9.33301 18.3825 9.33301 23.3332C9.33301 35.9332 25.783 50.1665 26.483 50.7732C26.9056 51.1347 27.4435 51.3333 27.9997 51.3333C28.5558 51.3333 29.0937 51.1347 29.5163 50.7732C30.333 50.1665 46.6663 35.9332 46.6663 23.3332C46.6663 18.3825 44.6997 13.6345 41.199 10.1338C37.6983 6.63317 32.9504 4.6665 27.9997 4.6665ZM27.9997 45.8498C23.0297 41.1832 13.9997 31.1265 13.9997 23.3332C13.9997 19.6201 15.4747 16.0592 18.1002 13.4337C20.7257 10.8082 24.2866 9.33317 27.9997 9.33317C31.7127 9.33317 35.2737 10.8082 37.8992 13.4337C40.5247 16.0592 41.9997 19.6201 41.9997 23.3332C41.9997 31.1265 32.9697 41.2065 27.9997 45.8498ZM27.9997 13.9998C26.1537 13.9998 24.3492 14.5472 22.8144 15.5728C21.2795 16.5983 20.0832 18.056 19.3768 19.7615C18.6704 21.4669 18.4855 23.3435 18.8457 25.154C19.2058 26.9645 20.0947 28.6275 21.4 29.9328C22.7053 31.2381 24.3683 32.127 26.1788 32.4872C27.9893 32.8473 29.8659 32.6625 31.5714 31.956C33.2768 31.2496 34.7345 30.0534 35.7601 28.5185C36.7856 26.9836 37.333 25.1791 37.333 23.3332C37.333 20.8578 36.3497 18.4838 34.5993 16.7335C32.849 14.9832 30.475 13.9998 27.9997 13.9998ZM27.9997 27.9998C27.0767 27.9998 26.1744 27.7261 25.407 27.2134C24.6396 26.7006 24.0414 25.9717 23.6882 25.119C23.335 24.2663 23.2426 23.328 23.4227 22.4227C23.6027 21.5175 24.0472 20.686 24.6998 20.0333C25.3525 19.3807 26.184 18.9362 27.0893 18.7562C27.9945 18.5761 28.9328 18.6685 29.7855 19.0217C30.6382 19.3749 31.3671 19.9731 31.8799 20.7405C32.3926 21.5079 32.6663 22.4102 32.6663 23.3332C32.6663 24.5708 32.1747 25.7578 31.2995 26.633C30.4243 27.5082 29.2373 27.9998 27.9997 27.9998Z" fill="#4D44B5"/>
</svg>
