<svg width="56" height="56" viewBox="0 0 56 56" fill="none" xmlns="http://www.w3.org/2000/svg">
<g clip-path="url(#clip0_58_309)">
<path d="M53.6667 44.3332H44.17C43.5512 44.3332 42.9577 44.0873 42.5201 43.6498C42.0825 43.2122 41.8367 42.6187 41.8367 41.9998V34.9998H14V41.9998C14 42.6187 13.7542 43.2122 13.3166 43.6498C12.879 44.0873 12.2855 44.3332 11.6667 44.3332H2.33333C1.71449 44.3332 1.121 44.0873 0.683417 43.6498C0.245833 43.2122 0 42.6187 0 41.9998V18.6665C0 16.81 0.737498 15.0295 2.05025 13.7168C3.36301 12.404 5.14348 11.6665 7 11.6665H49C50.8565 11.6665 52.637 12.404 53.9497 13.7168C55.2625 15.0295 56 16.81 56 18.6665V41.9998C56 42.6187 55.7542 43.2122 55.3166 43.6498C54.879 44.0873 54.2855 44.3332 53.6667 44.3332ZM46.5033 39.6665H51.3333V18.6665C51.3368 18.3591 51.2788 18.0542 51.1627 17.7695C51.0467 17.4849 50.8749 17.2263 50.6576 17.0089C50.4402 16.7916 50.1816 16.6198 49.897 16.5038C49.6123 16.3877 49.3074 16.3297 49 16.3332H7C6.69263 16.3297 6.38767 16.3877 6.10302 16.5038C5.81837 16.6198 5.55978 16.7916 5.34242 17.0089C5.12506 17.2263 4.95332 17.4849 4.83728 17.7695C4.72123 18.0542 4.66323 18.3591 4.66667 18.6665V39.6665H9.33333V32.6665C9.33333 32.0477 9.57917 31.4542 10.0168 31.0166C10.4543 30.579 11.0478 30.3332 11.6667 30.3332H44.17C44.7888 30.3332 45.3823 30.579 45.8199 31.0166C46.2575 31.4542 46.5033 32.0477 46.5033 32.6665V39.6665Z" fill="#4D44B5"/>
<path d="M44.1767 16.3333H11.6663C11.0475 16.3333 10.454 16.0875 10.0164 15.6499C9.57884 15.2123 9.33301 14.6188 9.33301 14V2.33333C9.33301 1.71449 9.57884 1.121 10.0164 0.683417C10.454 0.245833 11.0475 0 11.6663 0L44.1767 0C44.7955 0 45.389 0.245833 45.8266 0.683417C46.2642 1.121 46.51 1.71449 46.51 2.33333V14C46.51 14.6188 46.2642 15.2123 45.8266 15.6499C45.389 16.0875 44.7955 16.3333 44.1767 16.3333ZM13.9997 11.6667H41.8433V4.66667H13.9997V11.6667ZM39.7433 56H16.0997C14.305 56 12.5839 55.2871 11.3149 54.0181C10.0459 52.7491 9.33301 51.028 9.33301 49.2333V32.6667C9.33301 32.0478 9.57884 31.4543 10.0164 31.0168C10.454 30.5792 11.0475 30.3333 11.6663 30.3333H44.1697C44.7885 30.3333 45.382 30.5792 45.8196 31.0168C46.2572 31.4543 46.503 32.0478 46.503 32.6667V49.2333C46.503 51.0268 45.7911 52.7468 44.5236 54.0156C43.2561 55.2844 41.5368 55.9981 39.7433 56ZM13.9997 35V49.2333C13.9997 49.7903 14.2209 50.3244 14.6147 50.7183C15.0086 51.1121 15.5427 51.3333 16.0997 51.3333H39.7433C40.3003 51.3333 40.8344 51.1121 41.2283 50.7183C41.6221 50.3244 41.8433 49.7903 41.8433 49.2333V35H13.9997ZM46.6663 23.3333H44.333C43.7142 23.3333 43.1207 23.0875 42.6831 22.6499C42.2455 22.2123 41.9997 21.6188 41.9997 21C41.9997 20.3812 42.2455 19.7877 42.6831 19.3501C43.1207 18.9125 43.7142 18.6667 44.333 18.6667H46.6663C47.2852 18.6667 47.8787 18.9125 48.3163 19.3501C48.7538 19.7877 48.9997 20.3812 48.9997 21C48.9997 21.6188 48.7538 22.2123 48.3163 22.6499C47.8787 23.0875 47.2852 23.3333 46.6663 23.3333Z" fill="#4D44B5"/>
<path d="M35.0003 42.0002H21.0003C20.3815 42.0002 19.788 41.7543 19.3504 41.3167C18.9128 40.8792 18.667 40.2857 18.667 39.6668C18.667 39.048 18.9128 38.4545 19.3504 38.0169C19.788 37.5793 20.3815 37.3335 21.0003 37.3335H35.0003C35.6192 37.3335 36.2127 37.5793 36.6502 38.0169C37.0878 38.4545 37.3337 39.048 37.3337 39.6668C37.3337 40.2857 37.0878 40.8792 36.6502 41.3167C36.2127 41.7543 35.6192 42.0002 35.0003 42.0002ZM28.0003 49.0002H21.0003C20.3815 49.0002 19.788 48.7543 19.3504 48.3167C18.9128 47.8792 18.667 47.2857 18.667 46.6668C18.667 46.048 18.9128 45.4545 19.3504 45.0169C19.788 44.5793 20.3815 44.3335 21.0003 44.3335H28.0003C28.6192 44.3335 29.2127 44.5793 29.6502 45.0169C30.0878 45.4545 30.3337 46.048 30.3337 46.6668C30.3337 47.2857 30.0878 47.8792 29.6502 48.3167C29.2127 48.7543 28.6192 49.0002 28.0003 49.0002Z" fill="#4D44B5"/>
</g>
<defs>
<clipPath id="clip0_58_309">
<rect width="56" height="56" fill="white"/>
</clipPath>
</defs>
</svg>
