<svg width="56" height="56" viewBox="0 0 56 56" fill="none" xmlns="http://www.w3.org/2000/svg">
<path d="M50.0117 28.9282V43.4751C50.0117 44.6235 49.082 45.5532 47.9336 45.5532H33.3867C32.2383 45.5532 31.3086 44.6235 31.3086 43.4751V23.3501C31.3086 16.2243 37.0891 10.4438 44.2148 10.4438V17.9907C42.7328 17.9907 41.393 18.5923 40.425 19.5603C39.457 20.5282 38.8555 21.8681 38.8555 23.3501V26.8501H47.9336C49.082 26.8501 50.0117 27.7798 50.0117 28.9282Z" fill="#4D44B5"/>
<path d="M49.1915 28.9286C49.1915 30.7497 49.1915 32.5653 49.1915 34.3864C49.1915 37.0497 49.1915 39.7185 49.1915 42.3817C49.1915 42.688 49.1915 42.9942 49.1915 43.306C49.1915 43.3606 49.1915 43.4153 49.1915 43.47V43.4755C49.1915 43.552 49.186 43.6286 49.1805 43.6997C49.186 43.6614 49.2133 43.552 49.1751 43.6997C49.1587 43.7708 49.1368 43.8419 49.1149 43.913C49.1094 43.9458 49.0548 44.0606 49.1204 43.9185C49.0602 44.0497 48.9891 44.1755 48.9071 44.2849C49.0001 44.1645 48.9235 44.263 48.9016 44.2849C48.8524 44.3341 48.7977 44.3833 48.754 44.4325C48.6555 44.5364 48.7212 44.4599 48.754 44.438C48.6993 44.4817 48.6391 44.52 48.5735 44.5528C48.5298 44.5747 48.4915 44.5966 48.4477 44.6185C48.2618 44.7224 48.5844 44.5911 48.3766 44.6458C48.3274 44.6567 48.2837 44.6731 48.2344 44.6895C48.1852 44.7005 48.1415 44.7114 48.0923 44.7224C48.1907 44.7114 48.1852 44.7114 48.0868 44.7224C48.0048 44.7224 47.9282 44.7278 47.8516 44.7278C47.5837 44.7278 47.3157 44.7278 47.0477 44.7278C44.4391 44.7278 41.8305 44.7278 39.2219 44.7278C37.286 44.7278 35.3446 44.7552 33.4032 44.7278C33.3376 44.7278 33.2665 44.7224 33.2008 44.7169C33.0641 44.706 33.3758 44.7716 33.1626 44.706C33.1024 44.6895 33.0423 44.6731 32.9876 44.6567C32.9493 44.6458 32.8016 44.5856 32.9493 44.6513C32.8837 44.6239 32.818 44.5911 32.7579 44.5528C32.6977 44.5145 32.6376 44.4763 32.5774 44.438C32.6102 44.4599 32.6758 44.5364 32.5774 44.4325C32.5282 44.3833 32.479 44.3286 32.4298 44.2849C32.4079 44.263 32.3313 44.1645 32.4243 44.2849C32.3532 44.1864 32.2985 44.0825 32.2383 43.9786C32.1344 43.7927 32.2657 44.1153 32.211 43.9075C32.1946 43.8364 32.1727 43.7653 32.1508 43.6942C32.0852 43.481 32.1508 43.7872 32.1399 43.6559C32.1344 43.5903 32.1344 43.5302 32.129 43.4645V43.4591C32.129 43.4427 32.129 43.4317 32.129 43.4153C32.129 43.3497 32.129 43.2786 32.129 43.213C32.129 42.4966 32.129 41.7802 32.129 41.0638C32.129 38.3458 32.129 35.6278 32.129 32.9099C32.129 30.3122 32.129 27.7145 32.129 25.1114C32.129 24.5427 32.129 23.9685 32.129 23.3997C32.129 23.3013 32.129 23.2028 32.129 23.1044C32.1344 22.8474 32.1454 22.5958 32.1673 22.3388C32.1782 22.213 32.1891 22.0872 32.2001 21.9614C32.2055 21.9122 32.211 21.863 32.2165 21.8138C32.2219 21.7645 32.2493 21.5841 32.2274 21.7317C32.3751 20.7091 32.6376 19.7028 33.0258 18.7458C33.0423 18.702 33.0641 18.6583 33.0805 18.6091C33.0094 18.7786 33.1024 18.5544 33.1133 18.538C33.1626 18.4286 33.2118 18.3192 33.2665 18.2099C33.3813 17.9692 33.5016 17.7341 33.6274 17.5044C33.8571 17.0833 34.1141 16.6786 34.393 16.2903C34.4641 16.1919 34.5352 16.0989 34.6063 16.0005C34.7485 15.8091 34.5024 16.1263 34.6555 15.9403C34.6829 15.902 34.7157 15.8638 34.743 15.831C34.9071 15.6286 35.0766 15.4263 35.2571 15.2349C35.5962 14.863 35.9516 14.513 36.329 14.1849C36.5094 14.0263 36.6954 13.8731 36.8813 13.731C36.7501 13.8349 37.018 13.627 37.0563 13.5997C37.1602 13.5231 37.2696 13.4466 37.379 13.3755C37.7837 13.0966 38.2102 12.845 38.6423 12.6153C38.8555 12.506 39.0743 12.3966 39.293 12.2981C39.3587 12.2708 39.4243 12.238 39.4899 12.2106C39.5173 12.1997 39.6376 12.1505 39.4954 12.2106C39.6321 12.156 39.7633 12.1013 39.9001 12.052C40.3813 11.8716 40.8735 11.7185 41.3712 11.5981C41.6118 11.538 41.8524 11.4888 42.0985 11.445C42.2188 11.4231 42.3446 11.4013 42.4649 11.3849C42.5141 11.3794 42.5633 11.3685 42.6126 11.363C42.4266 11.3903 42.6727 11.3575 42.6946 11.3521C43.1977 11.2919 43.7063 11.2646 44.2149 11.2646C43.9415 10.9911 43.668 10.7177 43.3946 10.4442C43.3946 12.6427 43.3946 14.8411 43.3946 17.0395C43.3946 17.3567 43.3946 17.6739 43.3946 17.9911C43.668 17.7177 43.9415 17.4442 44.2149 17.1708C41.7813 17.1927 39.5118 18.6419 38.5493 20.8895C37.9423 22.3169 38.0352 23.8044 38.0352 25.3192C38.0352 25.8278 38.0352 26.3419 38.0352 26.8505C38.0352 27.2935 38.4126 27.6708 38.8555 27.6708C40.1516 27.6708 41.4477 27.6708 42.7383 27.6708C44.3899 27.6708 46.036 27.6708 47.6876 27.6708C47.7587 27.6708 47.8298 27.6708 47.9008 27.6708C47.9118 27.6708 47.9227 27.6708 47.9337 27.6708C48.0102 27.6708 48.0868 27.6763 48.1579 27.6817C47.9938 27.6653 48.2508 27.7091 48.3001 27.7255C48.3438 27.7364 48.393 27.7528 48.4368 27.7692C48.3602 27.7419 48.3712 27.7364 48.4368 27.7747C48.5188 27.8185 48.6008 27.8677 48.6829 27.9169C48.6938 27.9224 48.7868 27.9935 48.7157 27.9388C48.6337 27.8731 48.7813 27.9989 48.7923 28.0153C48.8251 28.0481 48.9946 28.245 48.8962 28.1138C48.9454 28.1794 48.9891 28.2505 49.0329 28.3216C49.0548 28.3653 49.0766 28.4036 49.0985 28.4474C49.1532 28.5567 49.0602 28.3325 49.0985 28.4528C49.1258 28.5458 49.1532 28.6388 49.1751 28.7317C49.1969 28.8247 49.1751 28.7099 49.1751 28.6989C49.186 28.7755 49.1915 28.852 49.1915 28.9286C49.1969 29.3552 49.5633 29.7708 50.0118 29.7489C50.4493 29.727 50.843 29.388 50.8321 28.9286C50.8048 27.3208 49.5141 26.0466 47.9118 26.0302C47.3923 26.0247 46.8782 26.0302 46.3587 26.0302C44.3844 26.0302 42.4048 26.0302 40.4305 26.0302C39.9055 26.0302 39.3805 26.0302 38.8555 26.0302C39.129 26.3036 39.4024 26.577 39.6758 26.8505C39.6758 25.8442 39.6758 24.8435 39.6758 23.8372C39.6758 23.6786 39.6758 23.5255 39.6758 23.3669C39.6758 23.2247 39.6813 23.088 39.6923 22.9458C39.7087 22.7216 39.736 22.552 39.8071 22.2567C40.0423 21.3161 40.5235 20.5395 41.2782 19.8833C41.4313 19.7466 41.393 19.7794 41.5407 19.6755C41.6555 19.5935 41.7758 19.5169 41.8962 19.4458C42.0165 19.3747 42.1423 19.3091 42.268 19.2435C42.3173 19.2161 42.3719 19.1942 42.4212 19.1724C42.6618 19.063 42.2899 19.2106 42.5415 19.1231C42.8149 19.0302 43.0883 18.9427 43.3727 18.888C43.4438 18.8716 43.5149 18.8606 43.586 18.8497C43.6462 18.8388 43.6462 18.8388 43.586 18.8497C43.6298 18.8442 43.6735 18.8388 43.7173 18.8388C43.8813 18.8224 44.0454 18.8169 44.2094 18.8169C44.6524 18.8114 45.0298 18.445 45.0298 17.9966C45.0298 15.7981 45.0298 13.5997 45.0298 11.4013C45.0298 11.0841 45.0298 10.7669 45.0298 10.4497C45.0298 10.0067 44.6524 9.62939 44.2094 9.62939C39.8126 9.64033 35.6891 11.7731 33.0915 15.306C31.861 16.9794 31.0188 18.97 30.6852 21.0208C30.5266 21.9888 30.4829 22.9567 30.4829 23.9356C30.4829 26.1778 30.4829 28.42 30.4829 30.6622C30.4829 33.6153 30.4829 36.5685 30.4829 39.5216C30.4829 40.5224 30.4829 41.5286 30.4829 42.5294C30.4829 43.1802 30.4282 43.8747 30.6688 44.4927C31.1118 45.6247 32.1673 46.363 33.3868 46.3794C33.5618 46.3794 33.7423 46.3794 33.9173 46.3794C34.9563 46.3794 35.9954 46.3794 37.0344 46.3794C39.9165 46.3794 42.804 46.3794 45.686 46.3794C46.4133 46.3794 47.1407 46.3849 47.8735 46.3794C49.5469 46.3739 50.8266 45.045 50.8266 43.3825C50.8321 41.1895 50.8266 38.9966 50.8266 36.8036C50.8266 34.3208 50.8266 31.838 50.8266 29.3606C50.8266 29.2185 50.8266 29.0763 50.8266 28.9341C50.8266 28.5075 50.4493 28.0919 50.0063 28.1138C49.5688 28.1302 49.1915 28.4692 49.1915 28.9286Z" fill="#4D44B5"/>
<path d="M24.6914 28.9282V43.4751C24.6914 44.6235 23.7617 45.5532 22.6133 45.5532H8.06641C6.91797 45.5532 5.98828 44.6235 5.98828 43.4751V23.3501C5.98828 16.2243 11.7687 10.4438 18.8945 10.4438V17.9907C17.4125 17.9907 16.0727 18.5923 15.1047 19.5603C14.1367 20.5282 13.5352 21.8681 13.5352 23.3501V26.8501H22.6133C23.7617 26.8501 24.6914 27.7798 24.6914 28.9282Z" fill="#4D44B5"/>
<path d="M23.8712 28.9286C23.8712 30.7497 23.8712 32.5653 23.8712 34.3864C23.8712 37.0497 23.8712 39.7185 23.8712 42.3817C23.8712 42.688 23.8712 42.9942 23.8712 43.306C23.8712 43.3606 23.8712 43.4153 23.8712 43.47V43.4755C23.8712 43.552 23.8657 43.6286 23.8602 43.6997C23.8657 43.6614 23.893 43.552 23.8548 43.6997C23.8384 43.7708 23.8165 43.8419 23.7946 43.913C23.7891 43.9458 23.7344 44.0606 23.8001 43.9185C23.7399 44.0497 23.6688 44.1755 23.5868 44.2849C23.6798 44.1645 23.6032 44.263 23.5813 44.2849C23.5321 44.3341 23.4774 44.3833 23.4337 44.4325C23.3352 44.5364 23.4008 44.4599 23.4337 44.438C23.379 44.4817 23.3188 44.52 23.2532 44.5528C23.2094 44.5747 23.1712 44.5966 23.1274 44.6185C22.9415 44.7224 23.2641 44.5911 23.0563 44.6458C23.0071 44.6567 22.9633 44.6731 22.9141 44.6895C22.8649 44.7005 22.8212 44.7114 22.7719 44.7224C22.8704 44.7114 22.8649 44.7114 22.7665 44.7224C22.6844 44.7224 22.6079 44.7278 22.5313 44.7278C22.2633 44.7278 21.9954 44.7278 21.7274 44.7278C19.1188 44.7278 16.5102 44.7278 13.9016 44.7278C11.9657 44.7278 10.0243 44.7552 8.08288 44.7278C8.01725 44.7278 7.94616 44.7224 7.88054 44.7169C7.74382 44.706 8.05554 44.7716 7.84225 44.706C7.7821 44.6895 7.72194 44.6731 7.66725 44.6567C7.62897 44.6458 7.48132 44.5856 7.62897 44.6513C7.56335 44.6239 7.49772 44.5911 7.43757 44.5528C7.37741 44.5145 7.31725 44.4763 7.2571 44.438C7.28991 44.4599 7.35554 44.5364 7.2571 44.4325C7.20788 44.3833 7.15866 44.3286 7.10944 44.2849C7.08757 44.263 7.011 44.1645 7.10397 44.2849C7.03288 44.1864 6.97819 44.0825 6.91804 43.9786C6.81413 43.7927 6.94538 44.1153 6.89069 43.9075C6.87429 43.8364 6.85241 43.7653 6.83054 43.6942C6.76491 43.481 6.83054 43.7872 6.8196 43.6559C6.81413 43.5903 6.81413 43.5302 6.80866 43.4645V43.4591C6.80866 43.4427 6.80866 43.4317 6.80866 43.4153C6.80866 43.3497 6.80866 43.2786 6.80866 43.213C6.80866 42.4966 6.80866 41.7802 6.80866 41.0638C6.80866 38.3458 6.80866 35.6278 6.80866 32.9099C6.80866 30.3122 6.80866 27.7145 6.80866 25.1114C6.80866 24.5427 6.80866 23.9685 6.80866 23.3997C6.80866 23.3013 6.80866 23.2028 6.80866 23.1044C6.81413 22.8474 6.82507 22.5958 6.84694 22.3388C6.85788 22.213 6.86882 22.0872 6.87975 21.9614C6.88522 21.9122 6.89069 21.863 6.89616 21.8138C6.90163 21.7645 6.92897 21.5841 6.9071 21.7317C7.05475 20.7091 7.31725 19.7028 7.70554 18.7458C7.72194 18.702 7.74382 18.6583 7.76022 18.6091C7.68913 18.7786 7.7821 18.5544 7.79304 18.538C7.84225 18.4286 7.89147 18.3192 7.94616 18.2099C8.061 17.9692 8.18132 17.7341 8.3071 17.5044C8.53679 17.0833 8.79382 16.6786 9.07272 16.2903C9.14382 16.1919 9.21491 16.0989 9.286 16.0005C9.42819 15.8091 9.1821 16.1263 9.33522 15.9403C9.36257 15.902 9.39538 15.8638 9.42272 15.831C9.58679 15.6286 9.75632 15.4263 9.93679 15.2349C10.2758 14.863 10.6313 14.513 11.0087 14.1849C11.1891 14.0263 11.3751 13.8731 11.561 13.731C11.4298 13.8349 11.6977 13.627 11.736 13.5997C11.8399 13.5231 11.9493 13.4466 12.0587 13.3755C12.4633 13.0966 12.8899 12.845 13.3219 12.6153C13.5352 12.506 13.754 12.3966 13.9727 12.2981C14.0383 12.2708 14.104 12.238 14.1696 12.2106C14.1969 12.1997 14.3173 12.1505 14.1751 12.2106C14.3118 12.156 14.443 12.1013 14.5798 12.052C15.061 11.8716 15.5532 11.7185 16.0508 11.5981C16.2915 11.538 16.5321 11.4888 16.7782 11.445C16.8985 11.4231 17.0243 11.4013 17.1446 11.3849C17.1938 11.3794 17.243 11.3685 17.2923 11.363C17.1063 11.3903 17.3524 11.3575 17.3743 11.3521C17.8774 11.2919 18.386 11.2646 18.8946 11.2646C18.6212 10.9911 18.3477 10.7177 18.0743 10.4442C18.0743 12.6427 18.0743 14.8411 18.0743 17.0395C18.0743 17.3567 18.0743 17.6739 18.0743 17.9911C18.3477 17.7177 18.6212 17.4442 18.8946 17.1708C16.461 17.1927 14.1915 18.6419 13.229 20.8895C12.6219 22.3169 12.7149 23.8044 12.7149 25.3192C12.7149 25.8278 12.7149 26.3419 12.7149 26.8505C12.7149 27.2935 13.0923 27.6708 13.5352 27.6708C14.8313 27.6708 16.1274 27.6708 17.418 27.6708C19.0696 27.6708 20.7157 27.6708 22.3673 27.6708C22.4383 27.6708 22.5094 27.6708 22.5805 27.6708C22.5915 27.6708 22.6024 27.6708 22.6133 27.6708C22.6899 27.6708 22.7665 27.6763 22.8376 27.6817C22.6735 27.6653 22.9305 27.7091 22.9798 27.7255C23.0235 27.7364 23.0727 27.7528 23.1165 27.7692C23.0399 27.7419 23.0508 27.7364 23.1165 27.7747C23.1985 27.8185 23.2805 27.8677 23.3626 27.9169C23.3735 27.9224 23.4665 27.9935 23.3954 27.9388C23.3133 27.8731 23.461 27.9989 23.4719 28.0153C23.5048 28.0481 23.6743 28.245 23.5758 28.1138C23.6251 28.1794 23.6688 28.2505 23.7126 28.3216C23.7344 28.3653 23.7563 28.4036 23.7782 28.4474C23.8329 28.5567 23.7399 28.3325 23.7782 28.4528C23.8055 28.5458 23.8329 28.6388 23.8548 28.7317C23.8766 28.8247 23.8548 28.7099 23.8548 28.6989C23.8657 28.7755 23.8712 28.852 23.8712 28.9286C23.8766 29.3552 24.243 29.7708 24.6915 29.7489C25.129 29.727 25.5227 29.388 25.5118 28.9286C25.4844 27.3208 24.1938 26.0466 22.5915 26.0302C22.0719 26.0247 21.5579 26.0302 21.0383 26.0302C19.0641 26.0302 17.0844 26.0302 15.1102 26.0302C14.5852 26.0302 14.0602 26.0302 13.5352 26.0302C13.8087 26.3036 14.0821 26.577 14.3555 26.8505C14.3555 25.8442 14.3555 24.8435 14.3555 23.8372C14.3555 23.6786 14.3555 23.5255 14.3555 23.3669C14.3555 23.2247 14.361 23.088 14.3719 22.9458C14.3883 22.7216 14.4157 22.552 14.4868 22.2567C14.7219 21.3161 15.2032 20.5395 15.9579 19.8833C16.111 19.7466 16.0727 19.7794 16.2204 19.6755C16.3352 19.5935 16.4555 19.5169 16.5758 19.4458C16.6962 19.3747 16.8219 19.3091 16.9477 19.2435C16.9969 19.2161 17.0516 19.1942 17.1008 19.1724C17.3415 19.063 16.9696 19.2106 17.2212 19.1231C17.4946 19.0302 17.768 18.9427 18.0524 18.888C18.1235 18.8716 18.1946 18.8606 18.2657 18.8497C18.3258 18.8388 18.3258 18.8388 18.2657 18.8497C18.3094 18.8442 18.3532 18.8388 18.3969 18.8388C18.561 18.8224 18.7251 18.8169 18.8891 18.8169C19.3321 18.8114 19.7094 18.445 19.7094 17.9966C19.7094 15.7981 19.7094 13.5997 19.7094 11.4013C19.7094 11.0841 19.7094 10.7669 19.7094 10.4497C19.7094 10.0067 19.3321 9.62939 18.8891 9.62939C14.4923 9.64033 10.3688 11.7731 7.77116 15.306C6.54069 16.9794 5.6985 18.97 5.36491 21.0208C5.20632 21.9888 5.16257 22.9567 5.16257 23.9356C5.16257 26.1778 5.16257 28.42 5.16257 30.6622C5.16257 33.6153 5.16257 36.5685 5.16257 39.5216C5.16257 40.5224 5.16257 41.5286 5.16257 42.5294C5.16257 43.1802 5.10788 43.8747 5.3485 44.4927C5.79147 45.6247 6.84694 46.363 8.06647 46.3794C8.24147 46.3794 8.42194 46.3794 8.59694 46.3794C9.636 46.3794 10.6751 46.3794 11.7141 46.3794C14.5962 46.3794 17.4837 46.3794 20.3657 46.3794C21.093 46.3794 21.8204 46.3849 22.5532 46.3794C24.2266 46.3739 25.5063 45.045 25.5063 43.3825C25.5118 41.1895 25.5063 38.9966 25.5063 36.8036C25.5063 34.3208 25.5063 31.838 25.5063 29.3606C25.5063 29.2185 25.5063 29.0763 25.5063 28.9341C25.5063 28.5075 25.129 28.0919 24.686 28.1138C24.2485 28.1302 23.8712 28.4692 23.8712 28.9286Z" fill="#4D44B5"/>
</svg>
