<svg width="56" height="56" viewBox="0 0 56 56" fill="none" xmlns="http://www.w3.org/2000/svg">
<path d="M48.3 45.1503L38.5 35.3503C40.775 32.3753 42.175 28.7003 42.175 24.6753C42.175 15.0503 34.3 7.17529 24.675 7.17529C15.05 7.17529 7 15.0503 7 24.6753C7 34.3003 14.875 42.1753 24.5 42.1753C28.525 42.1753 32.375 40.7753 35.35 38.3253L45.15 48.1253C45.5 48.4753 46.2 48.8253 46.725 48.8253C47.25 48.8253 47.775 48.6503 48.3 48.1253C49.175 47.4253 49.175 46.0253 48.3 45.1503ZM11.375 24.6753C11.375 17.5003 17.325 11.5503 24.5 11.5503C31.675 11.5503 37.625 17.5003 37.625 24.6753C37.625 31.8503 31.675 37.8003 24.5 37.8003C17.325 37.8003 11.375 32.0253 11.375 24.6753Z" fill="#4D44B5"/>
</svg>
