<svg width="56" height="56" viewBox="0 0 56 56" fill="none" xmlns="http://www.w3.org/2000/svg">
<g clip-path="url(#clip0_58_258)">
<path fill-rule="evenodd" clip-rule="evenodd" d="M25.1003 54.25H12.25C9.35025 54.25 7 51.8997 7 49V34.4208C7 31.8833 8.81475 29.7098 11.3102 29.2565C15.0097 28.5828 21.3885 27.4225 24.997 26.768C26.9832 26.4057 29.0168 26.4057 31.003 26.768C34.6115 27.4225 40.9903 28.5828 44.6898 29.2565C47.1853 29.7098 49 31.8833 49 34.4208C49 38.2375 49 44.9155 49 49C49 51.8997 46.6497 54.25 43.75 54.25H25.1003ZM41.699 32.27L41.706 32.2788C42.0123 32.7373 42.084 33.313 41.9002 33.8327L40.6647 37.3327C40.5037 37.7895 40.159 38.1605 39.7145 38.3548L37.3905 39.368L38.3145 41.2177C38.5735 41.734 38.5595 42.3447 38.2795 42.8505L33.8905 50.75H43.75C44.716 50.75 45.5 49.966 45.5 49C45.5 44.9155 45.5 38.2375 45.5 34.4208C45.5 33.5755 44.8945 32.851 44.0633 32.6987L41.699 32.27ZM36.9128 31.3985L30.3765 30.2103C28.805 29.925 27.195 29.925 25.6235 30.2103L19.0872 31.3985L17.6908 33.4933L18.382 35.4498L21.7 36.8952C22.1393 37.0877 22.4805 37.4517 22.645 37.9032C22.8095 38.3547 22.7797 38.8535 22.5645 39.2823L21.2275 41.9563L26.1135 50.75H29.8865L34.7725 41.9563L33.4355 39.2823C33.2203 38.8535 33.1905 38.3547 33.355 37.9032C33.5195 37.4517 33.8607 37.0877 34.3 36.8952L37.618 35.4498L38.3093 33.4933L36.9128 31.3985ZM14.301 32.27L11.9367 32.6987C11.1055 32.851 10.5 33.5755 10.5 34.4208V49C10.5 49.966 11.284 50.75 12.25 50.75H22.1095L17.7205 42.8505C17.4405 42.3447 17.4265 41.734 17.6855 41.2177L18.6095 39.368L16.2855 38.3548C15.841 38.1605 15.4963 37.7895 15.3353 37.3327L14.0997 33.8327C13.916 33.313 13.9877 32.7373 14.294 32.2788L14.301 32.27ZM40.25 42V45.5C40.25 46.466 41.034 47.25 42 47.25C42.966 47.25 43.75 46.466 43.75 45.5V42C43.75 41.034 42.966 40.25 42 40.25C41.034 40.25 40.25 41.034 40.25 42ZM28 1.75C21.7227 1.75 16.625 6.84775 16.625 13.125C16.625 19.4023 21.7227 24.5 28 24.5C34.2773 24.5 39.375 19.4023 39.375 13.125C39.375 6.84775 34.2773 1.75 28 1.75ZM28 5.25C32.347 5.25 35.875 8.778 35.875 13.125C35.875 17.472 32.347 21 28 21C23.653 21 20.125 17.472 20.125 13.125C20.125 8.778 23.653 5.25 28 5.25Z" fill="#4D44B5"/>
</g>
<defs>
<clipPath id="clip0_58_258">
<rect width="56" height="56" fill="white"/>
</clipPath>
</defs>
</svg>
