<svg width="56" height="56" viewBox="0 0 56 56" fill="none" xmlns="http://www.w3.org/2000/svg">
<g clip-path="url(#clip0_58_276)">
<path fill-rule="evenodd" clip-rule="evenodd" d="M7 49C7 51.8997 9.35025 54.25 12.25 54.25H43.75C46.6497 54.25 49 51.8997 49 49C49 44.9155 49 38.2375 49 34.4208C49 31.8833 47.1853 29.7098 44.6898 29.2565C40.9903 28.5828 34.6115 27.4225 31.003 26.768C29.0168 26.4057 26.9832 26.4057 24.997 26.768C21.3885 27.4225 15.0097 28.5828 11.3102 29.2565C8.81475 29.7098 7 31.8833 7 34.4208V49ZM32.039 30.513L34.6657 40.5003C35.0105 41.811 34.5485 43.2023 33.488 44.0493C32.592 44.7633 31.1798 45.8903 30.1998 46.6743C28.9135 47.6998 27.0865 47.6998 25.8002 46.6743C24.8202 45.8903 23.408 44.7633 22.512 44.0493C21.4515 43.2023 20.9895 41.811 21.3343 40.5003L23.961 30.513L11.9367 32.6987C11.1055 32.851 10.5 33.5755 10.5 34.4208V49C10.5 49.966 11.284 50.75 12.25 50.75C19.572 50.75 36.428 50.75 43.75 50.75C44.716 50.75 45.5 49.966 45.5 49C45.5 44.9155 45.5 38.2375 45.5 34.4208C45.5 33.5755 44.8945 32.851 44.0633 32.6987L32.039 30.513ZM28.2853 30.0003C28.0945 29.995 27.9055 29.995 27.7147 30.0003L24.7328 41.3438L27.9842 43.9372C27.993 43.946 28.007 43.946 28.0158 43.9372L31.2672 41.3438L28.2853 30.0003ZM28 1.75C21.7227 1.75 16.625 6.84775 16.625 13.125C16.625 19.4023 21.7227 24.5 28 24.5C34.2773 24.5 39.375 19.4023 39.375 13.125C39.375 6.84775 34.2773 1.75 28 1.75ZM28 5.25C32.347 5.25 35.875 8.778 35.875 13.125C35.875 17.472 32.347 21 28 21C23.653 21 20.125 17.472 20.125 13.125C20.125 8.778 23.653 5.25 28 5.25Z" fill="#4D44B5"/>
</g>
<defs>
<clipPath id="clip0_58_276">
<rect width="56" height="56" fill="white"/>
</clipPath>
</defs>
</svg>
