<?xml version="1.0" standalone="no"?>
<!DOCTYPE svg PUBLIC "-//W3C//DTD SVG 20010904//EN"
 "http://www.w3.org/TR/2001/REC-SVG-20010904/DTD/svg10.dtd">
<svg version="1.0" xmlns="http://www.w3.org/2000/svg"
 width="512.000000pt" height="512.000000pt" viewBox="0 0 512.000000 512.000000"
 preserveAspectRatio="xMidYMid meet">

<g transform="translate(0.000000,512.000000) scale(0.100000,-0.100000)"
fill="#000000" stroke="none">
<path d="M783 4940 c-71 -32 -107 -114 -82 -187 7 -21 38 -65 72 -100 65 -68
65 -68 -19 -76 -215 -22 -444 -202 -531 -418 -45 -111 -55 -169 -60 -339 -4
-158 -4 -167 19 -210 25 -48 89 -90 138 -90 49 0 113 42 138 90 20 39 22 59
22 181 0 108 4 151 19 200 40 126 134 223 253 260 34 11 63 17 66 14 3 -2 -18
-29 -45 -58 -28 -29 -58 -67 -67 -85 -35 -68 -5 -167 64 -203 45 -24 116 -24
155 0 47 28 398 406 417 448 41 88 23 118 -206 362 -227 240 -254 256 -353
211z"/>
<path d="M2870 4469 c-542 -67 -1006 -438 -1185 -948 l-23 -63 -63 -23 c-474
-165 -822 -569 -931 -1079 -31 -144 -31 -408 0 -552 64 -298 189 -531 397
-739 208 -208 441 -333 735 -396 85 -18 138 -22 280 -23 189 0 301 17 460 70
397 133 726 447 881 844 21 52 44 98 51 102 7 4 49 22 93 39 321 123 606 383
759 694 65 130 96 221 127 365 32 150 32 410 0 560 -61 287 -186 523 -386 726
-208 211 -455 345 -747 404 -118 24 -334 34 -448 19z m442 -342 c271 -71 510
-240 661 -469 358 -539 181 -1276 -381 -1592 -35 -20 -65 -36 -66 -36 -2 0 -6
52 -10 117 -17 297 -113 564 -286 795 -259 345 -645 549 -1087 575 -99 5 -113
8 -108 22 22 59 123 197 205 281 172 176 365 279 612 326 115 21 339 12 460
-19z m-960 -960 c403 -105 706 -408 816 -815 22 -86 26 -117 26 -267 0 -143
-3 -184 -21 -256 -126 -498 -533 -839 -1033 -866 -538 -28 -1005 316 -1148
845 -23 87 -26 115 -26 272 0 157 3 185 26 272 56 205 152 374 297 519 167
167 363 269 603 315 115 21 339 12 460 -19z"/>
<path d="M2013 2941 c-46 -22 -69 -51 -87 -112 -12 -41 -14 -42 -77 -58 -84
-21 -142 -56 -207 -125 -62 -65 -100 -141 -115 -231 -33 -193 93 -396 291
-468 47 -17 90 -21 245 -26 l189 -6 34 -37 c47 -51 47 -95 0 -146 l-34 -37
-309 -5 c-352 -6 -358 -7 -401 -90 -29 -57 -25 -116 11 -164 43 -56 77 -66
230 -66 l134 0 6 -36 c14 -82 97 -142 182 -130 61 10 120 66 132 126 8 42 8
42 73 59 165 41 293 179 322 349 34 203 -91 404 -297 477 -38 14 -95 20 -238
24 l-189 6 -34 37 c-47 51 -47 95 0 146 l34 37 309 5 c352 6 358 7 401 90 29
55 24 117 -12 165 -42 55 -77 65 -229 65 l-135 0 -6 33 c-10 53 -43 97 -89
117 -53 24 -81 25 -134 1z"/>
<path d="M4367 1347 c-35 -15 -423 -380 -448 -421 -44 -73 -12 -183 64 -220
75 -35 148 -13 227 68 24 25 47 46 51 46 4 0 3 -18 -2 -41 -22 -95 -93 -191
-181 -242 -71 -42 -148 -57 -296 -57 -152 0 -186 -10 -230 -68 -39 -51 -39
-133 0 -184 44 -58 78 -68 230 -68 152 0 234 11 331 45 245 85 439 314 464
547 3 32 10 61 14 64 4 2 38 -22 74 -55 44 -40 78 -63 101 -67 129 -24 233
106 178 221 -20 43 -403 404 -452 427 -43 20 -86 22 -125 5z"/>
</g>
</svg>
