<svg width="56" height="56" viewBox="0 0 56 56" fill="none" xmlns="http://www.w3.org/2000/svg">
<g clip-path="url(#clip0_58_327)">
<path d="M49.0002 16.3333C49.0223 16.1707 49.0223 16.0059 49.0002 15.8433C48.9799 15.7063 48.9406 15.5728 48.8835 15.4467C48.8219 15.3326 48.7517 15.2234 48.6735 15.12C48.5848 14.9724 48.4747 14.8388 48.3469 14.7233L48.0669 14.56C47.9322 14.4596 47.7826 14.3808 47.6235 14.3267H47.1569C47.0147 14.189 46.8486 14.0783 46.6669 14H35.0002C34.3814 14 33.7879 14.2458 33.3503 14.6834C32.9127 15.121 32.6669 15.7145 32.6669 16.3333C32.6669 16.9522 32.9127 17.5457 33.3503 17.9832C33.7879 18.4208 34.3814 18.6667 35.0002 18.6667H41.6035L32.2702 29.6567L22.1902 23.66C21.7128 23.376 21.1497 23.2717 20.6022 23.3658C20.0547 23.4599 19.5588 23.7463 19.2035 24.1733L7.53687 38.1733C7.3404 38.4091 7.19237 38.6813 7.10127 38.9744C7.01016 39.2675 6.97777 39.5757 7.00595 39.8813C7.03413 40.1869 7.12232 40.4839 7.26547 40.7554C7.40863 41.0269 7.60393 41.2675 7.8402 41.4633C8.26 41.8112 8.78835 42.0011 9.33353 42C9.67633 42.0006 10.015 41.9256 10.3256 41.7804C10.6361 41.6352 10.9108 41.4234 11.1302 41.16L21.5135 28.7L31.4769 34.6733C31.9494 34.9536 32.5058 35.0582 33.0479 34.9685C33.5899 34.8789 34.083 34.6008 34.4402 34.1833L44.3335 22.6333V28C44.3335 28.6188 44.5794 29.2123 45.0169 29.6499C45.4545 30.0875 46.048 30.3333 46.6669 30.3333C47.2857 30.3333 47.8792 30.0875 48.3168 29.6499C48.7544 29.2123 49.0002 28.6188 49.0002 28V16.3333Z" fill="#4D44B5"/>
</g>
<defs>
<clipPath id="clip0_58_327">
<rect width="56" height="56" fill="white"/>
</clipPath>
</defs>
</svg>
