<svg width="56" height="56" viewBox="0 0 56 56" fill="none" xmlns="http://www.w3.org/2000/svg">
<path d="M36.6461 15.2252C36.6461 15.7064 36.6133 16.1877 36.5531 16.6635C36.5805 16.4721 36.6078 16.2752 36.6297 16.0838C36.4984 17.0354 36.2469 17.9596 35.8805 18.8455C35.9515 18.6705 36.0281 18.4955 36.0992 18.3205C35.7328 19.1846 35.2625 19.9939 34.6883 20.7377C34.8031 20.59 34.918 20.4424 35.0328 20.2947C34.464 21.0275 33.8023 21.6893 33.0695 22.258C33.2172 22.1432 33.3648 22.0283 33.5125 21.9135C32.7687 22.4822 31.9594 22.958 31.0953 23.3244C31.2703 23.2533 31.4453 23.1768 31.6203 23.1057C30.7344 23.4721 29.8101 23.7236 28.8586 23.8549C29.05 23.8275 29.2469 23.8002 29.4383 23.7783C28.4812 23.9041 27.5187 23.9041 26.5617 23.7783C26.7531 23.8057 26.95 23.833 27.1414 23.8549C26.1898 23.7236 25.2656 23.4721 24.3797 23.1057C24.5547 23.1768 24.7297 23.2533 24.9047 23.3244C24.0406 22.958 23.2312 22.4877 22.4875 21.9135C22.6351 22.0283 22.7828 22.1432 22.9304 22.258C22.1976 21.6893 21.5359 21.0275 20.9672 20.2947C21.082 20.4424 21.1969 20.59 21.3117 20.7377C20.7429 19.9939 20.2672 19.1846 19.9008 18.3205C19.9718 18.4955 20.0484 18.6705 20.1195 18.8455C19.7531 17.9596 19.5015 17.0354 19.3703 16.0838C19.3976 16.2752 19.425 16.4721 19.4468 16.6635C19.3211 15.7064 19.3211 14.7439 19.4468 13.7869C19.4195 13.9783 19.3922 14.1752 19.3703 14.3666C19.5015 13.415 19.7531 12.4908 20.1195 11.6049C20.0484 11.7799 19.9718 11.9549 19.9008 12.1299C20.2672 11.2658 20.7375 10.4564 21.3117 9.7127C21.1969 9.86035 21.082 10.008 20.9672 10.1557C21.5359 9.42285 22.1976 8.76113 22.9304 8.19238C22.7828 8.30723 22.6351 8.42207 22.4875 8.53692C23.2312 7.96817 24.0406 7.49238 24.9047 7.12598C24.7297 7.19707 24.5547 7.27363 24.3797 7.34473C25.2656 6.97832 26.1898 6.72676 27.1414 6.59551C26.95 6.62285 26.7531 6.6502 26.5617 6.67207C27.5187 6.54629 28.4812 6.54629 29.4383 6.67207C29.2469 6.64473 29.05 6.61738 28.8586 6.59551C29.8101 6.72676 30.7344 6.97832 31.6203 7.34473C31.4453 7.27363 31.2703 7.19707 31.0953 7.12598C31.9594 7.49238 32.7687 7.9627 33.5125 8.53692C33.3648 8.42207 33.2172 8.30723 33.0695 8.19238C33.8023 8.76113 34.464 9.42285 35.0328 10.1557C34.918 10.008 34.8031 9.86035 34.6883 9.7127C35.257 10.4564 35.7328 11.2658 36.0992 12.1299C36.0281 11.9549 35.9515 11.7799 35.8805 11.6049C36.2469 12.4908 36.4984 13.415 36.6297 14.3666C36.6023 14.1752 36.575 13.9783 36.5531 13.7869C36.6133 14.2627 36.6406 14.7439 36.6461 15.2252C36.6515 16.3682 37.6469 17.4674 38.8336 17.4127C40.0148 17.358 41.0266 16.4502 41.0211 15.2252C41.0101 12.6057 40.2226 9.92598 38.6805 7.79317C38.2648 7.21895 37.8219 6.65567 37.3297 6.14707C36.832 5.63301 36.2851 5.19004 35.7164 4.75801C34.6828 3.97051 33.5289 3.39082 32.3039 2.94238C27.3656 1.13223 21.4101 2.74551 18.0687 6.81426C17.6093 7.37207 17.1718 7.95176 16.8 8.5752C16.4281 9.19317 16.1383 9.84942 15.8703 10.5166C15.3672 11.7525 15.1101 13.065 15.0062 14.3939C14.8039 16.9971 15.482 19.715 16.8383 21.9463C18.1453 24.101 20.1195 25.9494 22.4273 26.9939C23.1054 27.3002 23.8 27.5846 24.5219 27.7869C25.2383 27.9838 25.9656 28.0932 26.7039 28.1807C28.0492 28.3393 29.4219 28.2299 30.7508 27.9619C35.7984 26.9338 40.0258 22.5861 40.8078 17.4838C40.9226 16.74 41.0101 15.9963 41.0101 15.2416C41.0156 14.0986 39.9984 12.9994 38.8226 13.0541C37.6414 13.0924 36.6461 14.0002 36.6461 15.2252ZM43.9031 49.4213C42.8312 49.4213 41.7594 49.4213 40.6875 49.4213C38.1336 49.4213 35.5851 49.4213 33.0312 49.4213C29.9578 49.4213 26.8844 49.4213 23.8054 49.4213C21.1531 49.4213 18.5008 49.4213 15.8429 49.4213C14.6015 49.4213 13.3601 49.4322 12.1187 49.4213C11.982 49.4213 11.8453 49.4104 11.714 49.3939C11.9054 49.4213 12.1023 49.4486 12.2937 49.4705C12.075 49.4377 11.8672 49.3775 11.6648 49.2955C11.8398 49.3666 12.0148 49.4432 12.1898 49.5143C11.9711 49.4213 11.7687 49.301 11.5773 49.1533C11.725 49.2682 11.8726 49.383 12.0203 49.4978C11.8562 49.3611 11.7031 49.2135 11.5718 49.0494C11.6867 49.1971 11.8015 49.3447 11.9164 49.4924C11.7687 49.301 11.6539 49.0986 11.5554 48.8799C11.6265 49.0549 11.7031 49.2299 11.7742 49.4049C11.6922 49.2025 11.6375 48.9893 11.5992 48.776C11.6265 48.9674 11.6539 49.1643 11.6757 49.3557C11.5882 48.6939 11.6484 47.9939 11.6484 47.3268C11.6484 46.5447 11.6484 45.7682 11.6484 44.9861C11.6484 44.401 11.6812 43.8213 11.7578 43.2416C11.7304 43.433 11.7031 43.6299 11.6812 43.8213C11.8343 42.7002 12.1297 41.601 12.5726 40.5564C12.5015 40.7314 12.425 40.9064 12.3539 41.0814C12.7804 40.0861 13.3273 39.151 13.989 38.2924C13.8742 38.44 13.7593 38.5877 13.6445 38.7354C14.3062 37.8877 15.0664 37.1221 15.9195 36.4604C15.7718 36.5752 15.6242 36.69 15.4765 36.8049C16.3351 36.1432 17.2703 35.5963 18.2656 35.1697C18.0906 35.2408 17.9156 35.3174 17.7406 35.3885C18.7851 34.951 19.8789 34.6502 21.0054 34.4971C20.814 34.5244 20.6172 34.5518 20.4258 34.5736C21.2351 34.4697 22.039 34.4643 22.8539 34.4643C23.8547 34.4643 24.8554 34.4643 25.8562 34.4643C28.1914 34.4643 30.5265 34.4643 32.8617 34.4643C33.764 34.4643 34.6609 34.4588 35.5633 34.5736C35.3719 34.5463 35.175 34.5189 34.9836 34.4971C36.1047 34.6502 37.2039 34.9455 38.2484 35.3885C38.0734 35.3174 37.8984 35.2408 37.7234 35.1697C38.7187 35.5963 39.6539 36.1432 40.5125 36.8049C40.3648 36.69 40.2172 36.5752 40.0695 36.4604C40.9172 37.1221 41.6828 37.8822 42.3445 38.7354C42.2297 38.5877 42.1148 38.44 42 38.2924C42.6617 39.151 43.2086 40.0861 43.6352 41.0814C43.5641 40.9064 43.4875 40.7314 43.4164 40.5564C43.8539 41.601 44.1547 42.6947 44.3078 43.8213C44.2805 43.6299 44.2531 43.433 44.2312 43.2416C44.3352 44.0674 44.3406 44.8877 44.3406 45.7189C44.3406 46.6213 44.3406 47.5236 44.3406 48.426C44.3406 48.7377 44.3516 49.0494 44.3133 49.3557C44.3406 49.1643 44.368 48.9674 44.3898 48.776C44.357 48.9947 44.2969 49.2025 44.2148 49.4049C44.2859 49.2299 44.3625 49.0549 44.4336 48.8799C44.3406 49.0986 44.2203 49.301 44.0727 49.4924C44.1875 49.3447 44.3023 49.1971 44.4172 49.0494C44.2805 49.2135 44.1328 49.3666 43.9687 49.4978C44.1164 49.383 44.2641 49.2682 44.4117 49.1533C44.2203 49.301 44.018 49.4158 43.7992 49.5143C43.9742 49.4432 44.1492 49.3666 44.3242 49.2955C44.1219 49.3775 43.9086 49.4322 43.6953 49.4705C43.8867 49.4432 44.0836 49.4158 44.275 49.3939C44.1547 49.4104 44.0289 49.4158 43.9031 49.4213C43.3398 49.4268 42.7602 49.6619 42.3555 50.0611C41.9781 50.4385 41.6883 51.0619 41.7156 51.6088C41.7703 52.7791 42.6781 53.8127 43.9031 53.7963C46.0305 53.7635 47.9008 52.3744 48.5242 50.3346C48.7703 49.5252 48.7156 48.6557 48.7156 47.8244C48.7156 45.9213 48.7758 44.0346 48.4477 42.1479C47.9664 39.3861 46.5773 36.7885 44.6742 34.7486C42.7711 32.7088 40.2117 31.2104 37.5047 30.5432C35.9515 30.1604 34.3875 30.1002 32.8015 30.1002C31.1719 30.1002 29.5476 30.1002 27.9179 30.1002C26.3101 30.1002 24.7078 30.1002 23.1 30.1002C21.4758 30.1002 19.8625 30.1768 18.282 30.5979C15.5968 31.3088 13.0703 32.8236 11.2054 34.8799C9.32418 36.9525 7.96246 39.5557 7.51949 42.3338C7.22418 44.1986 7.28434 46.0689 7.28434 47.9502C7.28434 48.8143 7.23512 49.7166 7.54684 50.5424C7.95153 51.6033 8.59684 52.44 9.54293 53.0689C10.2812 53.5557 11.2164 53.7908 12.0914 53.8018C12.5179 53.8072 12.9445 53.8018 13.3711 53.8018C14.4648 53.8018 15.5531 53.8018 16.6468 53.8018C18.2 53.8018 19.7476 53.8018 21.3008 53.8018C23.1054 53.8018 24.9101 53.8018 26.7148 53.8018C28.5687 53.8018 30.4172 53.8018 32.2711 53.8018C33.9664 53.8018 35.6562 53.8018 37.3516 53.8018C38.6805 53.8018 40.0094 53.8018 41.3328 53.8018C42.093 53.8018 42.8531 53.8018 43.6133 53.8018C43.7117 53.8018 43.8102 53.8018 43.9086 53.8018C45.0516 53.8018 46.1508 52.7955 46.0961 51.6143C46.0414 50.4221 45.1336 49.4213 43.9031 49.4213Z" fill="#4D44B5"/>
</svg>
